<?xml version="1.0" encoding="utf-8"?>
<!-- Generator: Adobe Illustrator 21.0.2, SVG Export Plug-In . SVG Version: 6.00 Build 0)  -->
<svg version="1.1" id="Layer_1" xmlns="http://www.w3.org/2000/svg" xmlns:xlink="http://www.w3.org/1999/xlink" x="0px" y="0px"
	 viewBox="0 0 257.5 257.5" style="enable-background:new 0 0 257.5 257.5;" xml:space="preserve">
<style type="text/css">
	.st0{fill:#CBD4DB;}
	.st1{fill:#F5E2D9;}
	.st2{fill:#FFFFFF;}
	.st3{fill:url(#SVGID_1_);}
	.st4{fill:#00C0F3;}
	.st5{fill:#00A651;}
	.st6{fill:none;}
	.st7{clip-path:url(#SVGID_3_);}
	.st8{fill-rule:evenodd;clip-rule:evenodd;fill:#8C6A2C;}
	.st9{fill-rule:evenodd;clip-rule:evenodd;}
	.st10{fill:#D0E0DA;}
	.st11{clip-path:url(#SVGID_5_);}
	.st12{fill:#D28842;}
	.st13{fill:#DAD847;}
	.st14{fill-rule:evenodd;clip-rule:evenodd;fill:#CBD4DB;}
	.st15{fill:#8E969C;}
	.st16{fill-rule:evenodd;clip-rule:evenodd;fill:#FFFFFF;}
	.st17{clip-path:url(#SVGID_7_);}
</style>
<g>
	<circle class="st0" cx="128.8" cy="128.8" r="128.8"/>
	<circle cx="128.8" cy="128.8" r="122.4"/>
	<circle class="st1" cx="128.8" cy="128.8" r="117.7"/>
	<g>
		<path d="M67.2,54.8l0.3,1c0.2,0.7,0.4,1.2,0.6,1.4c0.3,0.4,0.6,0.6,1,0.5c0.4,0,0.9-0.3,1.5-0.7l1,1.3l-5.4,4l-1-1.3
			c1-0.8,1.2-2.3,0.6-4.5l-4.4-16.3l1.4-1l14.5,8.8c1.4,0.9,2.4,1.3,3,1.2c0.6-0.1,1.1-0.2,1.5-0.5l1,1.3l-8.1,6l-1-1.3
			c0.7-0.5,1.1-1,1.2-1.2c0.1-0.3,0-0.5-0.1-0.7c-0.1-0.2-0.4-0.4-0.8-0.6l-0.4-0.3L72.2,51L67.2,54.8z M66.7,53l3.9-3l-5.7-3.3
			L66.7,53z"/>
		<path d="M91.3,45.6l-0.4-1.3l5.4-19.9l-3.1,1c-2,0.7-3.2,1.3-3.8,1.9c-0.5,0.6-0.7,1.7-0.7,3.4l-1.5,0.5l-1.4-5.2l16.2-5.4
			l0.4,1.3l-5.5,19.9l4.4-1.5c1.2-0.4,2.1-0.8,2.6-1.2c0.5-0.4,0.9-1,1.2-1.8c0.3-0.8,0.4-1.7,0.4-2.9l1.6-0.5l1.6,5.8L91.3,45.6z"
			/>
		<path d="M119.8,19.3l0-1.7l10.7,0.2l0,1.7l-0.3,0c-1,0-1.7,0.1-2,0.5c-0.3,0.4-0.5,1-0.5,1.9l-0.2,8c0,1.5,0.1,2.6,0.3,3.4
			c0.2,0.8,0.7,1.6,1.5,2.2c0.8,0.6,1.8,0.9,2.9,0.9c1.2,0,2.3-0.3,3.2-0.9c0.9-0.6,1.5-1.4,1.7-2.3c0.3-0.9,0.4-2.2,0.5-3.8
			l0.1-6.8c0-2.1-0.9-3.1-2.9-3.2l0-1.7l7.5,0.2l0,1.7c-0.4,0-0.9,0.1-1.4,0.3c-0.5,0.2-0.8,0.6-1,1c-0.2,0.4-0.3,1-0.3,1.8
			l-0.1,6.8c0,1.5-0.1,2.6-0.4,3.6c-0.2,0.9-0.7,1.8-1.4,2.6c-0.7,0.8-1.7,1.5-2.9,2c-1.2,0.5-2.6,0.7-4.1,0.7c-1.6,0-3-0.3-4.2-0.9
			s-2.2-1.2-2.8-2c-0.6-0.8-1.1-1.7-1.3-2.6c-0.2-0.9-0.3-2-0.3-3.3l0.2-8c0-1-0.1-1.6-0.5-2C121.7,19.5,120.9,19.3,119.8,19.3z"/>
		<path d="M153.2,40.8l2.4-6.5l1.7,0.6c-0.2,2.1,0,3.8,0.6,4.9c0.6,1.2,1.5,2,2.6,2.3c0.8,0.3,1.5,0.3,2.2,0
			c0.7-0.3,1.1-0.8,1.3-1.4c0.2-0.5,0.2-1,0-1.5c-0.1-0.6-0.7-1.3-1.6-2.3c-1.8-1.9-3-3.2-3.5-4c-0.6-0.8-1-1.6-1.1-2.6
			c-0.2-1-0.1-1.9,0.3-3c0.6-1.6,1.7-2.8,3.2-3.4c1.6-0.6,3.1-0.7,4.7-0.1c1.6,0.6,2.8,1.6,3.5,3.1c0.3-0.2,0.6-0.6,0.9-1.1l1.6,0.6
			l-2,5.6l-1.6-0.6c0.2-1.3,0-2.6-0.5-3.7c-0.5-1.1-1.2-1.8-2.2-2.2c-0.7-0.3-1.4-0.3-2,0c-0.6,0.3-1,0.7-1.2,1.3
			c-0.2,0.5-0.2,1-0.1,1.5c0.1,0.5,0.4,1,0.8,1.4c0.4,0.4,1.2,1.3,2.5,2.6c1.1,1.2,2,2.1,2.4,2.9c0.5,0.8,0.8,1.6,0.9,2.5
			c0.1,0.9,0,1.8-0.3,2.7c-0.6,1.7-1.7,2.9-3.4,3.5c-1.7,0.7-3.3,0.7-5.1,0.1c-1-0.4-1.9-0.9-2.7-1.7c-0.8-0.8-1.3-1.6-1.7-2.5
			c-0.4,0.3-0.7,0.8-1,1.4L153.2,40.8z"/>
		<path d="M183,49.2l-0.9,0.6c-0.7,0.4-1.1,0.7-1.2,0.9c-0.3,0.4-0.4,0.8-0.2,1.1c0.1,0.4,0.5,0.8,1.1,1.2l-1,1.3l-5.3-4.1l1-1.3
			c1,0.8,2.5,0.6,4.5-0.6l14.5-8.7l1.4,1.1L192.3,57c-0.4,1.6-0.6,2.7-0.3,3.3c0.2,0.6,0.5,1,0.9,1.3l-1,1.3l-8-6.1l1-1.3
			c0.7,0.5,1.2,0.8,1.5,0.8c0.3,0,0.5-0.1,0.7-0.3c0.1-0.2,0.3-0.5,0.4-0.9l0.1-0.5l0.4-1.5L183,49.2z M184.5,48.2l3.9,3l1.7-6.4
			L184.5,48.2z"/>
	</g>
	<g>
		<circle class="st2" cx="128.8" cy="128.8" r="85.3"/>
		<path d="M128.8,215.6c-47.9,0-86.9-39-86.9-86.9c0-47.9,39-86.9,86.9-86.9c47.9,0,86.9,39,86.9,86.9
			C215.6,176.7,176.7,215.6,128.8,215.6z M128.8,45C82.6,45,45,82.6,45,128.8s37.6,83.7,83.7,83.7c46.2,0,83.7-37.6,83.7-83.7
			S174.9,45,128.8,45z"/>
	</g>
	<radialGradient id="SVGID_1_" cx="128.1132" cy="105.4791" r="28.5038" gradientUnits="userSpaceOnUse">
		<stop  offset="0" style="stop-color:#FFFFFF"/>
		<stop  offset="1" style="stop-color:#8ED8F8"/>
	</radialGradient>
	<circle class="st3" cx="128.6" cy="128.2" r="80.3"/>
	<g id="G3EKzS_2_">
		<g>
			<path class="st4" d="M50.1,146.6c-0.4-2.4-0.8-4.5-1.2-6.8c21-2.6,42-5.2,62.9-7.7c0,0.1,0,0.2,0.1,0.3
				C91.4,137.1,70.9,141.8,50.1,146.6z"/>
			<path class="st4" d="M209.4,125.8c0,2.4,0,4.5,0,6.9c-21.1-1.1-42-2.2-62.9-3.3c0-0.1,0-0.2,0-0.3
				C167.4,128,188.3,126.9,209.4,125.8z"/>
			<path class="st4" d="M192.9,178.4c-1.5,1.8-2.9,3.4-4.4,5.3c-15-14-30-28-45-41.9c0.1-0.1,0.2-0.2,0.3-0.3
				C160.1,153.7,176.5,166,192.9,178.4z"/>
			<path class="st4" d="M208.9,139.8c-0.4,2.4-0.8,4.5-1.2,6.8c-20.5-4.7-40.9-9.5-61.3-14.2c0-0.1,0-0.2,0-0.3
				C167.1,134.7,187.8,137.2,208.9,139.8z"/>
			<path class="st4" d="M104.6,52.3c6.1,20.1,12.2,39.9,18.2,59.6c-0.1,0-0.2,0.1-0.3,0.1c-8.1-19.1-16.2-38.1-24.4-57.4
				C100.3,53.9,102.3,53.1,104.6,52.3z"/>
			<path class="st4" d="M188.4,74.8c1.5,1.8,2.9,3.5,4.4,5.3c-16.4,12.4-32.7,24.7-49.1,37c-0.1-0.1-0.2-0.2-0.3-0.3
				C158.4,102.7,173.4,88.8,188.4,74.8z"/>
			<path class="st4" d="M69.4,183.7c-1.5-1.8-2.9-3.5-4.4-5.3c16.4-12.4,32.8-24.7,49.1-37c0.1,0.1,0.2,0.2,0.3,0.3
				C99.4,155.7,84.5,169.6,69.4,183.7z"/>
			<path class="st4" d="M91.6,200.7c-2.1-1.2-3.9-2.3-6-3.4c11.4-17.6,22.8-35,34.1-52.5c0.1,0.1,0.2,0.1,0.3,0.2
				C110.6,163.5,101.2,182,91.6,200.7z"/>
			<path class="st4" d="M141.1,114.3c12.3-16.3,24.6-32.7,36.9-49.1c1.8,1.5,3.5,2.9,5.3,4.4c-14,15-28,30-41.9,44.9
				C141.3,114.5,141.2,114.4,141.1,114.3z"/>
			<path class="st4" d="M116.4,114.6c-13.9-14.9-27.9-29.9-41.9-44.9c1.8-1.5,3.5-2.9,5.3-4.4c12.3,16.4,24.7,32.7,37,49.1
				C116.6,114.4,116.5,114.5,116.4,114.6z"/>
			<path class="st4" d="M146.3,208c-2.3,0.4-4.4,0.8-6.8,1.2c-2.5-20.7-5.1-41.3-7.6-61.9c0.1,0,0.2,0,0.3-0.1
				C136.9,167.4,141.6,187.6,146.3,208z"/>
			<path class="st4" d="M141.4,143.8c13.9,14.9,27.8,29.8,41.9,44.9c-1.7,1.5-3.4,2.9-5.3,4.5c-12.3-16.4-24.7-32.7-37-49.1
				C141.2,144,141.3,143.9,141.4,143.8z"/>
			<path class="st4" d="M146.7,125.9c20.2-4.7,40.5-9.4,60.9-14.1c0.4,2.3,0.8,4.4,1.2,6.8c-20.8,2.5-41.5,5.1-62.1,7.6
				C146.7,126.1,146.7,126,146.7,125.9z"/>
			<path class="st4" d="M49,118.6c0.4-2.4,0.8-4.5,1.2-6.8c20.7,4.8,41.2,9.5,61.7,14.3c0,0.1,0,0.2,0,0.2
				C91,123.8,70.1,121.2,49,118.6z"/>
			<path class="st4" d="M166.2,57.7c2.1,1.2,4,2.3,6,3.5c-11.4,17.6-22.8,35-34.1,52.5c-0.1-0.1-0.2-0.1-0.3-0.2
				C147.2,95,156.6,76.5,166.2,57.7z"/>
			<path class="st4" d="M111.6,123.1c-19.8-6-39.6-12.1-59.6-18.2c0.8-2.2,1.5-4.2,2.3-6.5c19.2,8.2,38.3,16.3,57.4,24.4
				C111.7,122.9,111.7,123,111.6,123.1z"/>
			<path class="st4" d="M104.6,206.1c-2.3-0.8-4.3-1.6-6.5-2.4c8.2-19.2,16.3-38.3,24.4-57.4c0.1,0,0.2,0.1,0.3,0.1
				C116.8,166.3,110.7,186.1,104.6,206.1z"/>
			<path class="st4" d="M144.5,120c17.5-11.3,34.9-22.7,52.5-34.1c1.1,2,2.2,3.9,3.4,6c-18.7,9.5-37.2,19-55.8,28.4
				C144.6,120.2,144.5,120.1,144.5,120z"/>
			<path class="st4" d="M85.6,61.1c2.1-1.2,3.9-2.3,6-3.5c9.5,18.7,19,37.2,28.4,55.8c-0.1,0.1-0.2,0.1-0.3,0.2
				C108.4,96.2,97.1,78.8,85.6,61.1z"/>
			<path class="st4" d="M153.2,52.3c2.2,0.8,4.3,1.5,6.5,2.3c-8.2,19.2-16.3,38.3-24.4,57.3c-0.1,0-0.2-0.1-0.3-0.1
				C141.1,92.1,147.1,72.3,153.2,52.3z"/>
			<path class="st4" d="M205.8,153.5c-0.8,2.3-1.6,4.3-2.4,6.5c-19.2-8.1-38.2-16.2-57.3-24.3c0-0.1,0.1-0.2,0.1-0.4
				C166,141.4,185.8,147.4,205.8,153.5z"/>
			<path class="st4" d="M60.9,172.5c-1.1-2-2.3-3.9-3.5-6c18.6-9.5,37.2-18.9,55.7-28.4c0.1,0.1,0.1,0.2,0.2,0.3
				C95.8,149.8,78.4,161.1,60.9,172.5z"/>
			<path class="st4" d="M65,80.1c1.5-1.8,2.9-3.5,4.4-5.3c15,14,30,28,44.9,41.9c-0.1,0.1-0.2,0.2-0.3,0.3
				C97.7,104.7,81.4,92.4,65,80.1z"/>
			<path class="st4" d="M135.3,146.4c8.1,19,16.2,38.1,24.4,57.3c-2.1,0.8-4.2,1.6-6.5,2.4c-6.1-20-12.2-39.8-18.2-59.6
				C135.1,146.5,135.2,146.4,135.3,146.4z"/>
			<path class="st4" d="M79.8,193.2c-1.8-1.5-3.5-2.9-5.3-4.4c14-15,28-30,41.9-45c0.1,0.1,0.2,0.2,0.3,0.3
				C104.4,160.4,92.1,176.7,79.8,193.2z"/>
			<path class="st4" d="M125.9,147.3c-2.5,20.6-5,41.1-7.6,61.8c-2.4-0.4-4.5-0.8-6.8-1.2c4.7-20.3,9.4-40.5,14-60.7
				C125.7,147.3,125.8,147.3,125.9,147.3z"/>
			<path class="st4" d="M48.4,132.7c0-2.4,0-4.6,0-6.9c21,1.1,41.9,2.2,62.8,3.3c0,0.1,0,0.2,0,0.3
				C90.3,130.5,69.5,131.6,48.4,132.7z"/>
			<path class="st4" d="M125.5,111.1c-4.7-20.2-9.3-40.3-14-60.7c2.3-0.4,4.4-0.8,6.8-1.2c2.5,20.7,5.1,41.2,7.6,61.8
				C125.8,111.1,125.7,111.1,125.5,111.1z"/>
			<path class="st4" d="M146.1,122.8c19.1-8.1,38.1-16.2,57.4-24.4c0.8,2.2,1.6,4.2,2.4,6.5c-20,6.1-39.8,12.2-59.6,18.2
				C146.1,123,146.1,122.9,146.1,122.8z"/>
			<path class="st4" d="M139.5,49.3c2.4,0.4,4.5,0.8,6.8,1.2c-4.7,20.3-9.4,40.5-14,60.7c-0.1,0-0.2,0-0.3-0.1
				C134.4,90.6,137,70,139.5,49.3z"/>
			<path class="st4" d="M110.7,136.1C92,144,73.3,152,54.4,160c-0.8-2.2-1.6-4.2-2.4-6.5c19.6-6,39.1-11.9,58.6-17.9
				C110.6,135.8,110.6,135.9,110.7,136.1z"/>
			<path class="st4" d="M132.4,48.8c-1.1,20.6-2.2,41-3.2,61.4c-0.1,0-0.3,0-0.4,0c-1.1-20.4-2.2-40.8-3.2-61.4
				C127.8,48.8,129.9,48.8,132.4,48.8z"/>
			<path class="st4" d="M112.6,120c-18.4-9.3-36.7-18.7-55.2-28.1c1.2-2.1,2.3-4,3.5-6c17.4,11.3,34.7,22.5,51.9,33.8
				C112.7,119.8,112.6,119.9,112.6,120z"/>
			<path class="st4" d="M139.2,146.5c11,16.9,21.9,33.7,33,50.8c-2,1.1-3.9,2.2-6,3.5c-9.2-18.1-18.3-36-27.5-54
				C138.9,146.6,139,146.6,139.2,146.5z"/>
			<path class="st4" d="M200.4,166.5c-1.2,2.1-2.3,4-3.5,6c-17-11-33.9-22-50.8-33c0.1-0.2,0.2-0.3,0.3-0.5
				C164.3,148.1,182.3,157.3,200.4,166.5z"/>
			<path class="st4" d="M132.4,209.7c-2.4,0-4.5,0-6.9,0c1.1-20.6,2.2-41.1,3.2-61.5c0.1,0,0.3,0,0.4,0
				C130.2,168.6,131.3,189.1,132.4,209.7z"/>
		</g>
	</g>
	<path class="st5" d="M49.9,143.8c7.1,37.1,39.7,65.2,78.9,65.2c41.4,0,75.5-31.3,79.8-71.6C158.6,139.5,85.8,142.4,49.9,143.8z"/>
	<circle class="st6" cx="128.8" cy="128.8" r="80.3"/>
	<g>
		<defs>
			<circle id="SVGID_2_" cx="129.2" cy="128.3" r="80.3"/>
		</defs>
		<clipPath id="SVGID_3_">
			<use xlink:href="#SVGID_2_"  style="overflow:visible;"/>
		</clipPath>
		<g class="st7">
			<path class="st8" d="M77.8,94.8l-10.1,9.1l-6-0.8l-1.4,0.6l-8.8,9.9L5.3,134.5l-20.4,22.7l25.4-0.8c0,0,26.7-10.3,51.5-4.3
				c24.7,6,42.1,6.2,42.1,6.2l12.5-1.5c0,0,45.6-6.5,66.4-3.4c20.8,3.1,38.3,5.4,49.3,8.8c11,3.5,19,7.3,19,7.3l-11.6-18l-0.1-16.4
				l-33.7-20.4l-12.5-20.6l-8.8,4.1l-3.6-1.3l-10.9,9.3l-6.2-3.9l-8.8-0.9l-20.2-22.5l-19.9,21c0,0-5.2,2.8-6.4,2.6
				c-1.2-0.2-2.7-0.8-3.7-0.5s-9.2,6.8-9.2,6.8L77.8,94.8z"/>
			<g>
				<polygon class="st9" points="67.7,122.1 80,110 84.1,107.4 89.6,114.5 103.8,101 109.2,101.1 116.8,93.6 134.8,74.4 
					155.2,100.1 166.1,101.2 187.5,119.7 165.1,104.5 152.7,103.4 133,81.2 119.5,96.2 112.5,106.9 109.6,105.7 104,112 85.5,118.8 
					82.8,114 				"/>
				<path class="st9" d="M21,127.4c0,0,22.5-11.8,27.4-14.1c5-2.2,12.4-12,12.4-12l6.9,0.4l10.7-9.1l13.2,11.5l8.4,5l-4.3,2.6
					l-5.9-5.2L77.9,95.6l-10.2,8.7l-6-1.3l-10.2,10.5l-3.3,1.4L21,127.4z"/>
				<polygon class="st9" points="169.9,106.2 181,95.1 184.4,96.4 192.4,90 208.9,113.8 242.5,136.9 240.7,138.7 206,118.8 
					191.1,95.9 184.4,100.5 181.2,98.5 171.8,106.6 				"/>
				<path class="st9" d="M10,157.2c35.9-14.5,90-6.5,123.3,14c-13.2-4.9-23.3-8.7-36.9-11.7C66,152.7,40.9,151.7,10,157.2L10,157.2z
					"/>
				<path class="st9" d="M100.4,157.3c44.4-12,117.7-7.3,158.8,15.8l-4.2-1.5c-45.7-17.3-103.7-23.4-151.1-10.7l-3-1.1L100.4,157.3z
					"/>
				<path class="st9" d="M127.7,159.2c30.4-7.6,80.8-0.6,109.2,13.1C201.2,160.6,164.7,155.9,127.7,159.2L127.7,159.2z"/>
				<path class="st9" d="M138.3,165.8c26.8-5.2,65.9,2.1,90,15.9C196.4,169.7,172,165.3,138.3,165.8L138.3,165.8z"/>
				<path class="st9" d="M150.3,169.6c5.2-0.2,39.7,3.2,47.9,6.2l0.4,0v0.2c0.8,0.3,1.3,0.7,1.3,1c0,0.4-0.5,0.8-1.3,1v0.2l-0.4-0.1
					c-4.5,1.2-17.2,1-27.9,0.4c3.6,0.7,6.8,1.4,8.7,1.9c7.1,2,24.7,7.6,30.9,10.8c-7.8-1.1-22.5-6.6-31.3-8.9
					c-7.4-1.8-14.8-2.4-21.3-4c-6.2-1.5-5-4.3-3-4.1c11.4,0.9,23,2.1,34.5,1.9C176,173.6,163.5,171.2,150.3,169.6L150.3,169.6z"/>
				<path class="st9" d="M44.4,160.2c28-7.4,83.4,7.3,108.5,22C122.8,170,76.4,156.8,44.4,160.2L44.4,160.2z"/>
				<path class="st9" d="M68.5,167.7c23.7-3.6,55,5.5,75.8,18.1C115.1,174.7,99.7,169.4,68.5,167.7L68.5,167.7z"/>
				<polygon class="st9" points="85.9,116.8 79.8,123.3 92.9,116.1 				"/>
				<polyline class="st9" points="89.7,111.2 78.7,103.1 80.5,100.6 				"/>
				<polygon class="st9" points="161.9,110.7 166.2,106.7 186.3,122.8 185.3,123.2 				"/>
				<polygon class="st9" points="129.1,103.1 131.9,93.1 136.6,94.9 147.7,113 153.3,114.2 135.5,116.3 141.3,114 				"/>
				<polygon class="st9" points="72.6,108.8 78.8,102.9 81.6,102.7 83.7,109.7 				"/>
				<polygon class="st9" points="64,102.8 56.8,111.6 65.4,103.3 				"/>
				<polygon class="st9" points="66.3,103.3 59,112.1 67.7,103.9 				"/>
				<polygon class="st9" points="191.4,101.3 194.6,98.7 203.3,119 				"/>
				<polygon class="st9" points="189.7,104.5 193,102 201.6,122.3 				"/>
				<polygon class="st9" points="187.8,108 191.1,105.4 199.7,125.7 				"/>
				<polygon class="st9" points="112.2,119.7 123.3,110.8 138.4,123.9 121.7,116.4 				"/>
				<polygon class="st9" points="172.7,107.2 179.6,101.7 174,108.3 				"/>
				<polygon class="st9" points="173.9,108.9 180.4,103.6 175.1,110 				"/>
				<polygon class="st9" points="74.3,107.1 57.1,119.7 76.9,108.4 				"/>
				<polygon class="st9" points="119.1,122 125,116.3 138.8,129 				"/>
				<polygon class="st9" points="116.5,127.6 122.4,121.9 136.2,134.7 				"/>
				<polygon class="st9" points="98.8,126.1 123.3,110.8 121.7,116.4 				"/>
				<polygon class="st9" points="166.2,106.7 164.5,105.7 149.6,125.3 162.4,113.8 165.5,111.3 				"/>
				<polygon class="st9" points="152.8,101.8 151,109.8 155.6,102.5 				"/>
				<path class="st9" d="M40.9,175.4c23.4-3.5,58-1.9,80.8,4.9c3.5,1.1,3.2,3.5-2.1,3.5c-6.4,0-38.6-1.2-48.3,0
					c6.1,0.5,22.1,1.6,23.6,1.8c8.1,1.1,10.6,1.4,17.9,5.1c-7.2-2.6-10.4-3.1-18-3.9c-2.8-0.3-25.8-0.8-26.9-1.8
					c-4.5-4.1,16.9-3.9,16.9-3.9c5-0.1,22.8,0.4,32.1,0.3C92.3,174.5,65.8,174.7,40.9,175.4L40.9,175.4z"/>
				<path class="st9" d="M103.3,145l-0.1,0.4c-0.1,0-0.6-0.1-0.4,0.1c0.1,0.2,0.3,0.3,0.3,0.3s-0.6,0.2-0.5,0.4
					c0.1,0.2,0.4,0.2,0.4,0.2s-1.2,0.5-1.1,0.6c0.1,0.1,0.7,0.3,1,0.3l-0.1,0.6c-0.3,0-1,0.1-0.9,0.2c0.1,0.1,0.5,0.2,0.8,0.3
					l-0.1,0.5c-0.4,0-1.3-0.1-1.3,0c0,0.2,0.6,0.5,1,0.6c0.1,0,0.1,0,0.2,0l-0.1,0.6c-0.1,0-0.1,0-0.2,0c-0.3,0-1.5-0.1-1.5-0.1
					s0.4,0.9,0.9,1.1c0.2,0.1,0.4,0.1,0.6,0.2l-0.1,0.7c-0.7-0.1-1.8-0.4-1.8-0.4s0.7,1.1,1.3,1.5c0.1,0.1,0.3,0.1,0.4,0.2l-0.1,0.3
					l-2.1,0.3c0,0,0.1,0.4,0.9,0.8c0.3,0.1,0.6,0.2,1,0.2l0,0.1l-1.9,0.3c0,0-0.5,0.4,0.3,0.7c0.4,0.2,0.9,0.2,1.4,0.3l0,0.3
					l-0.9,0.2l-0.3,0.6l1.1,0l-0.1,0.8l4-0.7l0-0.2h0.9l-0.3-0.5l-0.7-0.2l-0.1-0.3c0.4,0,0.9-0.1,1.2-0.2c0.8-0.3,0.3-0.7,0.3-0.7
					l-1.7-0.2l0-0.2c0.3,0,0.6-0.1,0.8-0.2c0.8-0.4,0.9-0.8,0.9-0.8l-1.9-0.3l-0.1-0.4c0.1,0,0.2-0.1,0.3-0.1
					c0.6-0.3,1.3-1.5,1.3-1.5s-1,0.2-1.7,0.4l-0.1-0.7c0.2,0,0.4-0.1,0.5-0.1c0.5-0.2,0.9-1.1,0.9-1.1s-1.2,0.1-1.5,0.1
					c0,0-0.1,0-0.1,0l-0.1-0.7c0,0,0.1,0,0.1,0c0.4,0,1-0.4,1-0.6c0-0.1-0.8,0-1.2,0l-0.1-0.5c0.2-0.1,0.6-0.2,0.7-0.3
					c0.1-0.1-0.5-0.1-0.8-0.2l-0.1-0.6c0.3-0.1,0.9-0.2,1-0.3c0.1-0.2-1.1-0.6-1.1-0.6s0.3-0.1,0.4-0.2c0.1-0.2-0.5-0.4-0.5-0.4
					s0.2-0.1,0.4-0.3c0.1-0.2-0.3-0.1-0.4-0.1L103.3,145z"/>
				<path class="st9" d="M108.3,140.7l-0.1,0.5c-0.1,0-0.6-0.1-0.4,0.1c0.1,0.2,0.3,0.4,0.3,0.4s-0.6,0.2-0.5,0.5
					c0.1,0.2,0.4,0.3,0.4,0.3s-1.2,0.6-1.1,0.8c0.1,0.2,0.7,0.4,1,0.4l-0.1,0.8c-0.3,0.1-0.9,0.1-0.9,0.2c0.1,0.1,0.5,0.3,0.8,0.4
					l-0.1,0.7c-0.4-0.1-1.3-0.2-1.3,0c0,0.2,0.6,0.7,1,0.8c0.1,0,0.1,0,0.2,0.1l-0.1,0.8c-0.1,0-0.1,0-0.2,0
					c-0.3-0.1-1.5-0.2-1.5-0.2s0.4,1.2,0.9,1.4c0.2,0.1,0.4,0.2,0.6,0.2l-0.1,0.9c-0.7-0.2-1.8-0.5-1.8-0.5s0.7,1.5,1.3,1.9
					c0.1,0.1,0.3,0.2,0.4,0.2l0,0.4l-2.1,0.4c0,0,0.1,0.5,0.9,1c0.3,0.2,0.6,0.2,0.9,0.3l0,0.2l-1.9,0.3c0,0-0.5,0.6,0.3,1
					c0.4,0.2,0.9,0.3,1.4,0.4l0,0.4l-0.9,0.2l-0.3,0.7l1.1,0l-0.1,1.1l4-1l0-0.2l0.9,0l-0.3-0.7l-0.7-0.2l-0.1-0.4
					c0.4-0.1,0.9-0.2,1.2-0.3c0.8-0.4,0.3-1,0.3-1l-1.7-0.3l0-0.2c0.3,0,0.6-0.1,0.8-0.3c0.8-0.5,0.9-1,0.9-1l-1.9-0.4l-0.1-0.5
					c0.1,0,0.2-0.1,0.3-0.2c0.5-0.4,1.3-1.9,1.3-1.9s-1,0.3-1.7,0.5l-0.1-0.8c0.2,0,0.3-0.1,0.5-0.2c0.5-0.3,0.9-1.4,0.9-1.4
					s-1.2,0.1-1.5,0.2c0,0-0.1,0-0.1,0l-0.1-0.8c0,0,0.1,0,0.1,0c0.4-0.1,1-0.6,1-0.8c0-0.2-0.8-0.1-1.2,0l-0.1-0.7
					c0.3-0.1,0.6-0.2,0.7-0.4c0.1-0.1-0.5-0.2-0.8-0.2l-0.1-0.8c0.3-0.1,0.9-0.3,1-0.4c0.1-0.2-1.1-0.8-1.1-0.8s0.3-0.1,0.4-0.3
					c0.1-0.2-0.5-0.5-0.5-0.5s0.2-0.1,0.3-0.4c0.1-0.2-0.3-0.1-0.4-0.1L108.3,140.7z"/>
				<path class="st9" d="M99,145.4l-0.1,0.4c-0.1,0-0.4-0.1-0.4,0.1c0.1,0.2,0.3,0.3,0.3,0.3s-0.5,0.2-0.4,0.4
					c0.1,0.2,0.3,0.2,0.3,0.2s-0.9,0.5-0.8,0.6c0.1,0.1,0.6,0.3,0.8,0.3l-0.1,0.6c-0.2,0-0.8,0.1-0.7,0.2c0.1,0.1,0.4,0.2,0.6,0.3
					l-0.1,0.5c-0.3,0-1-0.1-1,0c0,0.2,0.5,0.6,0.8,0.6c0.1,0,0.1,0,0.1,0l-0.1,0.6c-0.1,0-0.1,0-0.2,0c-0.3,0-1.2-0.1-1.2-0.1
					s0.3,0.9,0.7,1.1c0.2,0.1,0.3,0.1,0.5,0.2l-0.1,0.7c-0.6-0.1-1.4-0.4-1.4-0.4s0.6,1.1,1,1.5c0.1,0.1,0.2,0.1,0.3,0.2l0,0.3
					l-1.6,0.3c0,0,0.1,0.4,0.7,0.8c0.2,0.1,0.5,0.2,0.7,0.2l0,0.1l-1.5,0.3c0,0-0.4,0.4,0.2,0.7c0.3,0.2,0.7,0.2,1.1,0.3l0,0.3
					l-0.7,0.2l-0.2,0.6l0.9,0l-0.1,0.8l3.1-0.7l0-0.2l0.7,0l-0.2-0.6l-0.6-0.2l0-0.3c0.3,0,0.7-0.1,1-0.3c0.6-0.3,0.2-0.8,0.2-0.8
					l-1.3-0.2l0-0.2c0.2,0,0.4-0.1,0.6-0.2c0.6-0.4,0.7-0.8,0.7-0.8l-1.5-0.3l0-0.4c0.1,0,0.1-0.1,0.2-0.1c0.4-0.3,1-1.5,1-1.5
					s-0.8,0.3-1.4,0.4l-0.1-0.7c0.1,0,0.3-0.1,0.4-0.1c0.4-0.2,0.7-1.1,0.7-1.1s-0.9,0.1-1.2,0.1c0,0-0.1,0-0.1,0l-0.1-0.7
					c0,0,0.1,0,0.1,0c0.3,0,0.8-0.4,0.8-0.6c0-0.1-0.6,0-1,0l-0.1-0.5c0.2-0.1,0.5-0.2,0.6-0.3c0.1-0.1-0.4-0.1-0.6-0.2l-0.1-0.6
					c0.2-0.1,0.7-0.2,0.8-0.3c0.1-0.2-0.8-0.6-0.8-0.6s0.2-0.1,0.3-0.2c0.1-0.2-0.4-0.4-0.4-0.4s0.2-0.1,0.3-0.3
					c0.1-0.2-0.2-0.1-0.3-0.1L99,145.4z"/>
				<path class="st9" d="M91.9,144.3l-0.2,0.4c-0.1,0-0.3-0.1-0.2,0.1c0.1,0.2,0.3,0.3,0.3,0.3s-0.8,0.2-0.7,0.4
					c0.1,0.2,0.6,0.6,0.6,0.6s-0.9,0.2-0.8,0.3c0.1,0.1,0.5,0.6,0.8,0.6l0,0.3c-0.2,0-1.2,0-1.1,0.1c0.1,0.1,0.9,0.6,1.1,0.7l0,0.2
					c-0.4,0-1-0.1-1,0c0,0.1,0.6,0.8,0.8,0.8c0.2,0,0.1,0.2,0.1,0.2l0,0c-0.1,0,0,0-0.2,0c-0.2,0-1.2,0.1-1.2,0.1
					c0.3,0.8,0.6,1.2,1.2,1.3l0,0.2c-0.6,0.1-1.5,0.1-1.5,0.1s0.6,1.2,1,1.5c0.1,0.1,0.2,0.1,0.3,0.2l0,0.1l-2.1,0.6
					c0,0,0.3,0.6,0.7,0.8c0.4,0.3,1,0.2,1.2,0.2l0,0.1l-1.5,0.3c0,0-0.4,0.4,0.2,0.8c0.3,0.2,0.7,0.2,1.1,0.3l0,0.3l-0.7,0.2
					l-0.2,0.6l0.8,0l-0.1,0.8l3.1-0.7l0-0.2h0.7l-0.2-0.6l-0.6-0.2l0-0.3c0.3,0,1.3,0,1.7-0.3c0.4-0.2,0.2-0.7,0.2-0.7l-2.1-0.2
					l0-0.2c0.2,0,0.5,0,0.9-0.2c0.4-0.2,1.2-1,1.2-1l-2.3-0.3l0-0.2c0.1,0,0.1-0.1,0.2-0.1c0.4-0.3,1-1.5,1-1.5s-0.8,0.2-1.4-0.1
					l0-0.2c0.1,0,0.3-0.1,0.4-0.1c0.4-0.2,0.7-1.1,0.7-1.1s-1.1-0.2-1.2-0.2c-0.1,0-0.1,0-0.1,0l-0.1-0.1c0,0-0.1,0,0.1,0
					c0.2,0,0.8-0.7,0.9-0.8c0-0.1-0.6,0-1,0l0-0.1c0.2-0.1,0.7-0.7,0.8-0.8c0.1-0.1-0.7,0-0.9-0.1l0-0.2c0.2-0.1,0.8-0.6,0.9-0.7
					c0.1-0.2-1-0.3-1-0.3s0.4-0.4,0.4-0.6c0.1-0.2-0.5-0.4-0.5-0.4s0.2-0.1,0.3-0.3c0.1-0.2-0.1-0.1-0.2-0.1L91.9,144.3z"/>
				<path class="st9" d="M96,148.7l-0.2,0.3c-0.1,0-0.2-0.1-0.1,0.1c0.1,0.1,0.2,0.2,0.2,0.2s-0.6,0.1-0.5,0.3
					c0.1,0.1,0.5,0.5,0.5,0.5s-0.7,0.1-0.6,0.2c0.1,0.1,0.4,0.4,0.6,0.5l0,0.2c-0.2,0-0.9,0-0.9,0.1c0.1,0.1,0.7,0.5,0.8,0.5l0,0.2
					c-0.3,0-0.8-0.1-0.8,0c0,0.1,0.4,0.6,0.6,0.6c0.1,0,0.1,0.2,0.1,0.2l0,0c0,0,0,0-0.1,0c-0.1,0-0.9,0.1-0.9,0.1
					c0.2,0.6,0.4,0.9,0.9,1l0,0.1c-0.5,0.1-1.1,0.1-1.1,0.1s0.4,0.9,0.7,1.1c0.1,0.1,0.2,0.1,0.2,0.1l0,0l-1.6,0.4
					c0,0,0.2,0.4,0.5,0.6c0.3,0.2,0.7,0.2,0.9,0.2l0,0.1l-1.1,0.2c0,0-0.3,0.3,0.2,0.6c0.2,0.1,0.5,0.2,0.8,0.2l0,0.2l-0.5,0.2
					l-0.2,0.4h0.7l-0.1,0.6l2.4-0.6l0-0.1h0.5l-0.2-0.4l-0.4-0.1l0-0.3c0.3,0,1,0,1.3-0.2c0.3-0.2,0.2-0.6,0.2-0.6l-1.6-0.2l0-0.1
					c0.2,0,0.4,0,0.7-0.2c0.3-0.2,0.9-0.8,0.9-0.8l-1.8-0.2l0-0.2c0.1,0,0.1-0.1,0.2-0.1c0.3-0.2,0.8-1.1,0.8-1.1s-0.6,0.2-1.1-0.1
					l0-0.1c0.1,0,0.2,0,0.3-0.1c0.3-0.2,0.5-0.9,0.5-0.9s-0.8-0.2-0.9-0.1c-0.1,0,0,0-0.1,0l-0.1-0.1c0,0-0.1,0,0.1,0
					c0.1,0,0.6-0.5,0.7-0.6c0-0.1-0.5,0-0.7,0l0-0.1c0.1-0.1,0.6-0.5,0.6-0.6c0.1-0.1-0.5,0-0.7,0l0-0.1c0.2,0,0.6-0.5,0.7-0.6
					c0.1-0.1-0.8-0.3-0.8-0.3s0.3-0.3,0.4-0.5c0.1-0.1-0.4-0.3-0.4-0.3s0.1-0.1,0.2-0.2c0.1-0.1-0.1-0.1-0.1-0.1L96,148.7z"/>
				<path class="st9" d="M87,145.9l-0.1,0.3c-0.1,0-0.2-0.1-0.1,0.1c0.1,0.1,0.2,0.2,0.2,0.2s-0.6,0.1-0.5,0.3
					c0.1,0.1,0.5,0.5,0.5,0.5s-0.7,0.1-0.6,0.2c0.1,0.1,0.4,0.4,0.6,0.5l0,0.2c-0.2,0-0.9,0-0.9,0.1c0.1,0.1,0.7,0.5,0.8,0.5l0,0.2
					c-0.3,0-0.8-0.1-0.8,0c0,0.1,0.4,0.6,0.6,0.6c0.1,0,0.1,0.2,0.1,0.2l0,0c0,0,0,0-0.1,0c-0.1,0-0.9,0.1-0.9,0.1
					c0.2,0.6,0.4,0.9,0.9,1l0,0.1c-0.5,0.1-1.1,0.1-1.1,0.1s0.4,0.9,0.8,1.1c0.1,0.1,0.1,0.1,0.2,0.1l0,0l-1.6,0.4
					c0,0,0.2,0.4,0.5,0.6c0.3,0.2,0.7,0.2,0.9,0.2l0,0.1l-1.1,0.2c0,0-0.3,0.3,0.2,0.6c0.2,0.1,0.5,0.2,0.8,0.2l0,0.2l-0.5,0.2
					l-0.2,0.4h0.7l-0.1,0.6l2.4-0.6l0-0.1l0.5,0l-0.2-0.4l-0.4-0.1l0-0.3c0.3,0,1,0,1.3-0.2c0.3-0.2,0.2-0.6,0.2-0.6l-1.6-0.2l0-0.1
					c0.2,0,0.4,0,0.7-0.2c0.3-0.2,0.9-0.8,0.9-0.8l-1.8-0.2l0-0.2c0.1,0,0.1-0.1,0.2-0.1c0.3-0.3,0.7-1.1,0.7-1.1s-0.6,0.2-1.1-0.1
					l0-0.1c0.1,0,0.2,0,0.3-0.1c0.3-0.2,0.5-0.9,0.5-0.9s-0.8-0.2-0.9-0.1c-0.1,0,0,0-0.1,0l-0.1-0.1c0,0-0.1,0,0.1,0
					c0.1,0,0.6-0.5,0.7-0.6c0-0.1-0.5,0-0.7,0l0-0.1c0.1-0.1,0.6-0.5,0.6-0.6c0.1-0.1-0.5,0-0.7,0l0-0.1c0.2,0,0.6-0.5,0.7-0.6
					c0.1-0.1-0.8-0.2-0.8-0.2s0.3-0.3,0.3-0.5c0.1-0.1-0.4-0.3-0.4-0.3s0.1-0.1,0.2-0.2c0.1-0.1-0.1-0.1-0.1-0.1L87,145.9z"/>
				<path class="st9" d="M81.7,144.3l0.2,0.3c0.1,0,0.2-0.1,0.1,0.1c-0.1,0.1-0.2,0.2-0.2,0.2s0.6,0.1,0.5,0.3
					c-0.1,0.1-0.4,0.5-0.4,0.5s0.7,0.1,0.6,0.2c-0.1,0.1-0.4,0.4-0.6,0.5l0,0.2c0.2,0,0.9,0,0.9,0.1c-0.1,0.1-0.6,0.5-0.8,0.5l0,0.2
					c0.3,0,0.8-0.1,0.8,0c0,0.1-0.4,0.6-0.6,0.6c-0.1,0-0.1,0.2-0.1,0.2l0,0c0,0,0,0,0.1,0c0.1,0,0.9,0.1,0.9,0.1
					c-0.2,0.6-0.4,0.9-0.9,1l0,0.1c0.5,0.1,1.1,0.1,1.1,0.1s-0.4,0.9-0.7,1.1c-0.1,0.1-0.1,0.1-0.2,0.1l0,0l1.6,0.4
					c0,0-0.2,0.4-0.5,0.6c-0.3,0.2-0.7,0.2-0.9,0.2l0,0.1l1.1,0.2c0,0,0.3,0.3-0.1,0.6c-0.2,0.1-0.5,0.2-0.8,0.2l0,0.2l0.5,0.2
					l0.2,0.4h-0.7l0.1,0.6l-2.4-0.6l0-0.1h-0.5l0.2-0.4l0.4-0.1l0-0.3c-0.3,0-1,0-1.3-0.2c-0.3-0.2-0.2-0.6-0.2-0.6l1.6-0.2l0-0.1
					c-0.2,0-0.4,0-0.7-0.2c-0.3-0.2-0.9-0.8-0.9-0.8l1.8-0.2l0-0.2c-0.1,0-0.1-0.1-0.2-0.1c-0.3-0.2-0.8-1.1-0.8-1.1
					s0.6,0.2,1.1-0.1l0-0.1c-0.1,0-0.2,0-0.3-0.1c-0.3-0.2-0.6-0.9-0.6-0.9s0.8-0.2,0.9-0.1c0.1,0,0,0,0.1,0l0.1-0.1
					c0,0,0.1,0-0.1,0c-0.1,0-0.6-0.5-0.7-0.6c0-0.1,0.5,0,0.7,0l0-0.1c-0.1-0.1-0.6-0.5-0.6-0.6c-0.1-0.1,0.5,0,0.7,0l0-0.1
					c-0.2,0-0.6-0.5-0.7-0.6c-0.1-0.1,0.8-0.2,0.8-0.2s-0.3-0.3-0.4-0.5c-0.1-0.1,0.4-0.3,0.4-0.3s-0.1-0.1-0.2-0.2
					c-0.1-0.1,0.1-0.1,0.1-0.1L81.7,144.3z"/>
				<path class="st9" d="M69.2,142.9l0.2,0.3c0.1,0,0.2-0.1,0.1,0.1c-0.1,0.1-0.2,0.2-0.2,0.2s0.6,0.1,0.5,0.3
					c-0.1,0.1-0.4,0.5-0.4,0.5s0.7,0.1,0.6,0.2c-0.1,0.1-0.4,0.5-0.6,0.5l0,0.2c0.2,0,0.9,0,0.9,0c-0.1,0.1-0.6,0.5-0.8,0.5l0,0.2
					c0.3,0,0.8-0.1,0.8,0c0,0.1-0.4,0.6-0.6,0.6c-0.1,0-0.1,0.2-0.1,0.2l0,0c0,0,0,0,0.1,0c0.1,0,0.9,0.1,0.9,0.1
					c-0.2,0.6-0.4,0.9-0.9,1l0,0.1c0.5,0.1,1.1,0,1.1,0s-0.4,0.9-0.7,1.1c-0.1,0.1-0.1,0.1-0.2,0.1l0,0l1.6,0.4c0,0-0.2,0.4-0.5,0.6
					c-0.3,0.2-0.7,0.2-0.9,0.2l0,0.1l1.1,0.2c0,0,0.3,0.3-0.2,0.6c-0.2,0.1-0.5,0.2-0.8,0.2l0,0.2l0.5,0.2l0.2,0.4l-0.7,0l0.1,0.6
					l-2.4-0.6l0-0.1l-0.5,0l0.2-0.4l0.4-0.1l0-0.3c-0.3,0-1,0-1.3-0.2c-0.3-0.2-0.2-0.6-0.2-0.6l1.6-0.2l0-0.1c-0.2,0-0.4,0-0.7-0.2
					c-0.3-0.2-1-0.8-1-0.8l1.8-0.2l0-0.1c-0.1,0-0.1-0.1-0.2-0.1c-0.3-0.3-0.8-1.1-0.8-1.1s0.6,0.2,1.1-0.1l0-0.1
					c-0.1,0-0.2,0-0.3-0.1c-0.3-0.2-0.6-0.9-0.6-0.9s0.8-0.2,0.9-0.1c0.1,0,0,0,0.1,0l0.1-0.1c0,0,0.1,0-0.1,0
					c-0.1,0-0.7-0.5-0.7-0.6c0-0.1,0.5,0,0.7,0l0-0.1c-0.1-0.1-0.6-0.5-0.6-0.6c-0.1-0.1,0.5,0,0.7,0l0-0.1c-0.2,0-0.6-0.5-0.7-0.6
					c-0.1-0.1,0.8-0.2,0.8-0.2s-0.3-0.3-0.4-0.5c-0.1-0.1,0.4-0.3,0.4-0.3s-0.1-0.1-0.2-0.2c-0.1-0.1,0.1-0.1,0.1-0.1L69.2,142.9z"
					/>
				<path class="st9" d="M66.9,146.1l0.1,0.2c0,0,0.2-0.1,0.1,0c0,0.1-0.1,0.2-0.1,0.2s0.4,0.1,0.4,0.2c-0.1,0.1-0.3,0.3-0.3,0.3
					s0.5,0.1,0.5,0.2c0,0.1-0.3,0.3-0.4,0.3l0,0.2c0.1,0,0.7,0,0.6,0c0,0.1-0.4,0.3-0.6,0.4l0,0.1c0.2,0,0.6-0.1,0.5,0
					c0,0.1-0.3,0.4-0.4,0.4c-0.1,0,0,0.1-0.1,0.1l0,0c0,0,0,0,0.1,0c0.1,0,0.6,0,0.6,0c-0.1,0.4-0.3,0.6-0.6,0.7l0,0.1
					c0.4,0.1,0.8,0,0.8,0s-0.3,0.6-0.5,0.8c0,0-0.1,0.1-0.2,0.1l0,0l1.1,0.3c0,0-0.1,0.3-0.4,0.4c-0.2,0.1-0.5,0.1-0.6,0.1l0,0.1
					l0.8,0.2c0,0,0.2,0.2-0.1,0.4c-0.1,0.1-0.4,0.1-0.6,0.2l0,0.2l0.4,0.1l0.1,0.3l-0.5,0l0.1,0.5l-1.7-0.4v-0.1h-0.4l0.1-0.3
					l0.3-0.1l0-0.2c-0.2,0-0.7,0-0.9-0.1c-0.2-0.1-0.1-0.4-0.1-0.4l1.1-0.1l0-0.1c-0.1,0-0.3,0-0.5-0.1c-0.2-0.1-0.7-0.5-0.7-0.5
					l1.3-0.2l0-0.1c0,0-0.1,0-0.1-0.1c-0.2-0.2-0.6-0.8-0.6-0.8s0.4,0.1,0.8,0l0-0.1c-0.1,0-0.1,0-0.2-0.1c-0.2-0.1-0.4-0.6-0.4-0.6
					s0.6-0.1,0.6-0.1c0.1,0,0,0,0,0l0.1-0.1c0,0,0.1,0,0,0c-0.1,0-0.5-0.4-0.5-0.4c0-0.1,0.3,0,0.5,0l0-0.1c-0.1,0-0.4-0.4-0.5-0.4
					c0-0.1,0.4,0,0.5,0v-0.1c-0.1,0-0.4-0.3-0.5-0.4c-0.1-0.1,0.5-0.2,0.5-0.2s-0.2-0.2-0.3-0.3c-0.1-0.1,0.3-0.2,0.3-0.2
					s-0.1-0.1-0.1-0.2c-0.1-0.1,0-0.1,0.1,0L66.9,146.1z"/>
				<path class="st9" d="M64.5,143.2l0.1,0.3c0.1,0,0.2-0.1,0.1,0.1c-0.1,0.1-0.2,0.2-0.2,0.2s0.5,0.1,0.5,0.2
					c-0.1,0.1-0.4,0.4-0.4,0.4s0.6,0.1,0.6,0.2c0,0.1-0.3,0.4-0.5,0.4l0,0.2c0.2,0,0.8,0,0.8,0c-0.1,0.1-0.6,0.4-0.7,0.4l0,0.2
					c0.2,0,0.7-0.1,0.7,0c0,0.1-0.4,0.5-0.5,0.5c-0.1,0-0.1,0.1-0.1,0.1l0,0c0,0,0,0,0.1,0c0.1,0,0.8,0,0.8,0
					c-0.1,0.5-0.4,0.8-0.7,0.8l0,0.1c0.4,0.1,1,0,1,0s-0.3,0.8-0.6,1c-0.1,0.1-0.1,0.1-0.2,0.1l0,0l1.4,0.4c0,0-0.2,0.4-0.4,0.5
					c-0.3,0.2-0.6,0.1-0.8,0.1l0,0.1l1,0.2c0,0,0.3,0.3-0.1,0.5c-0.2,0.1-0.5,0.2-0.7,0.2l0,0.2l0.5,0.1l0.2,0.4h-0.6l0.1,0.5
					l-2.1-0.5l0-0.1h-0.5l0.1-0.4l0.4-0.1l0-0.2c-0.2,0-0.9,0-1.1-0.2c-0.3-0.2-0.2-0.5-0.2-0.5l1.4-0.2l0-0.1c-0.1,0-0.4,0-0.6-0.1
					c-0.3-0.2-0.8-0.7-0.8-0.7l1.5-0.2l0-0.1c0,0-0.1-0.1-0.1-0.1c-0.3-0.2-0.7-1-0.7-1s0.5,0.2,0.9-0.1v-0.1c-0.1,0-0.2,0-0.3-0.1
					c-0.3-0.2-0.5-0.7-0.5-0.7s0.7-0.1,0.8-0.1c0.1,0,0,0,0.1,0l0.1-0.1c0,0,0.1,0-0.1,0c-0.1,0-0.6-0.4-0.6-0.5c0-0.1,0.4,0,0.6,0
					l0-0.1c-0.1,0-0.5-0.5-0.6-0.5c-0.1-0.1,0.4,0,0.6,0l0-0.1c-0.1,0-0.5-0.4-0.6-0.5c-0.1-0.1,0.6-0.2,0.6-0.2s-0.2-0.3-0.3-0.4
					c-0.1-0.1,0.4-0.2,0.4-0.2s-0.1-0.1-0.2-0.2c-0.1-0.1,0.1-0.1,0.1-0.1L64.5,143.2z"/>
				<path class="st9" d="M60.8,145.4l0.1,0.2c0,0,0.1-0.1,0.1,0c-0.1,0.1-0.1,0.2-0.1,0.2s0.4,0.1,0.4,0.2c0,0.1-0.3,0.3-0.3,0.3
					s0.5,0.1,0.5,0.2c0,0.1-0.3,0.3-0.4,0.3l0,0.2c0.1,0,0.7,0,0.6,0c0,0.1-0.5,0.3-0.6,0.4l0,0.1c0.2,0,0.6-0.1,0.5,0
					c0,0.1-0.3,0.4-0.4,0.4c-0.1,0,0,0.1-0.1,0.1l0,0c0,0,0,0,0.1,0c0.1,0,0.6,0,0.6,0c-0.1,0.4-0.3,0.6-0.6,0.7l0,0.1
					c0.3,0.1,0.8,0,0.8,0s-0.3,0.6-0.5,0.8c-0.1,0-0.1,0.1-0.2,0.1l0,0l1.1,0.3c0,0-0.2,0.3-0.4,0.4c-0.2,0.1-0.5,0.1-0.6,0.1l0,0.1
					l0.8,0.2c0,0,0.2,0.2-0.1,0.4c-0.1,0.1-0.4,0.1-0.6,0.2l0,0.2l0.4,0.1l0.1,0.3l-0.5,0l0.1,0.5l-1.7-0.4l0-0.1h-0.4l0.1-0.3
					l0.3-0.1l0-0.2c-0.2,0-0.7,0-0.9-0.1c-0.2-0.1-0.1-0.4-0.1-0.4l1.1-0.1v-0.1c-0.1,0-0.3,0-0.5-0.1c-0.2-0.1-0.7-0.5-0.7-0.5
					l1.2-0.2l0-0.1c0,0-0.1,0-0.1-0.1c-0.2-0.2-0.6-0.8-0.6-0.8s0.4,0.1,0.8,0l0-0.1c-0.1,0-0.1,0-0.2-0.1c-0.2-0.1-0.4-0.6-0.4-0.6
					s0.6-0.1,0.6-0.1c0.1,0,0,0,0,0l0.1-0.1c0,0,0,0-0.1,0c-0.1,0-0.5-0.4-0.5-0.4c0-0.1,0.3,0,0.5,0v-0.1c-0.1,0-0.4-0.4-0.4-0.4
					c0-0.1,0.4,0,0.5,0l0-0.1c-0.1,0-0.4-0.3-0.5-0.4c0-0.1,0.5-0.2,0.5-0.2s-0.2-0.2-0.3-0.3c0-0.1,0.3-0.2,0.3-0.2
					s-0.1-0.1-0.1-0.2c-0.1-0.1,0-0.1,0.1,0L60.8,145.4z"/>
				<path class="st9" d="M129.3,144.1l0.2,0.3c0.1,0,0.2-0.1,0.1,0.1c-0.1,0.1-0.2,0.2-0.2,0.2s0.6,0.1,0.6,0.3
					c-0.1,0.1-0.4,0.5-0.4,0.5s0.7,0.1,0.6,0.2c-0.1,0.1-0.4,0.4-0.6,0.5l0,0.2c0.2,0,0.9,0,0.9,0.1c-0.1,0.1-0.6,0.5-0.8,0.5l0,0.2
					c0.3,0,0.8-0.1,0.8,0c0,0.1-0.4,0.6-0.6,0.6c-0.1,0-0.1,0.2-0.1,0.2l0,0c0,0,0,0,0.1,0c0.1,0,0.9,0.1,0.9,0.1
					c-0.2,0.6-0.4,0.9-0.9,1l0,0.1c0.5,0.1,1.1,0.1,1.1,0.1s-0.4,0.9-0.7,1.1c-0.1,0.1-0.2,0.1-0.2,0.1l0,0l1.6,0.4
					c0,0-0.2,0.4-0.5,0.6c-0.3,0.2-0.7,0.2-0.9,0.2l0,0.1l1.1,0.2c0,0,0.3,0.3-0.1,0.6c-0.2,0.1-0.5,0.2-0.8,0.2l0,0.2l0.5,0.2
					l0.2,0.4h-0.7l0.1,0.6l-2.4-0.6l0-0.1H128l0.2-0.4l0.4-0.1l0-0.3c-0.3,0-1,0-1.3-0.2c-0.3-0.2-0.2-0.6-0.2-0.6l1.6-0.2l0-0.1
					c-0.2,0-0.4,0-0.7-0.2c-0.3-0.2-0.9-0.8-0.9-0.8l1.8-0.2l0-0.2c-0.1,0-0.1-0.1-0.2-0.1c-0.3-0.2-0.8-1.1-0.8-1.1
					s0.6,0.2,1.1-0.1l0-0.1c-0.1,0-0.2,0-0.3-0.1c-0.3-0.2-0.6-0.9-0.6-0.9s0.8-0.2,0.9-0.1c0.1,0,0,0,0.1,0l0.1-0.1
					c0,0,0.1,0-0.1,0c-0.1,0-0.6-0.5-0.7-0.6c0-0.1,0.5,0,0.7,0l0-0.1c-0.2-0.1-0.6-0.5-0.6-0.6c-0.1-0.1,0.5,0,0.7,0l0-0.1
					c-0.2,0-0.6-0.5-0.7-0.6c-0.1-0.1,0.8-0.3,0.8-0.3s-0.3-0.3-0.4-0.5c-0.1-0.1,0.4-0.3,0.4-0.3s-0.1-0.1-0.2-0.2
					c-0.1-0.1,0.1-0.1,0.1-0.1L129.3,144.1z"/>
				<path class="st9" d="M132.6,146.4l0.1,0.2c0,0,0.2-0.1,0.1,0c0,0.1-0.1,0.2-0.1,0.2s0.4,0.1,0.4,0.2c-0.1,0.1-0.3,0.3-0.3,0.3
					s0.5,0.1,0.5,0.2c0,0.1-0.3,0.3-0.4,0.3l0,0.2c0.1,0,0.6,0,0.6,0c0,0.1-0.4,0.3-0.6,0.4l0,0.1c0.2,0,0.6-0.1,0.5,0
					c0,0.1-0.3,0.4-0.4,0.4c-0.1,0,0,0.1-0.1,0.1l0,0c0,0,0,0,0.1,0c0.1,0,0.6,0,0.6,0c-0.1,0.5-0.3,0.6-0.6,0.7l0,0.1
					c0.3,0.1,0.8,0,0.8,0s-0.3,0.6-0.5,0.8c-0.1,0-0.1,0.1-0.2,0.1l0,0l1.1,0.3c0,0-0.1,0.3-0.4,0.4c-0.2,0.1-0.5,0.1-0.6,0.1l0,0.1
					l0.8,0.1c0,0,0.2,0.2-0.1,0.4c-0.1,0.1-0.4,0.1-0.6,0.1l0,0.2l0.4,0.1l0.1,0.3h-0.5l0.1,0.5l-1.7-0.4V153l-0.4,0l0.1-0.3
					l0.3-0.1l0-0.2c-0.2,0-0.7,0-0.9-0.1c-0.2-0.1-0.1-0.4-0.1-0.4l1.1-0.1l0-0.1c-0.1,0-0.3,0-0.5-0.1c-0.2-0.1-0.7-0.5-0.7-0.5
					l1.3-0.2l0-0.1c0,0-0.1,0-0.1-0.1c-0.2-0.2-0.6-0.8-0.6-0.8s0.4,0.1,0.8,0l0-0.1c-0.1,0-0.1,0-0.2-0.1c-0.2-0.1-0.4-0.6-0.4-0.6
					s0.6-0.1,0.6-0.1c0.1,0,0,0,0,0l0.1-0.1c0,0,0.1,0,0,0c-0.1,0-0.5-0.3-0.5-0.4c0-0.1,0.3,0,0.5,0l0-0.1c-0.1,0-0.4-0.4-0.4-0.4
					c0,0,0.4,0,0.5,0v-0.1c-0.1,0-0.4-0.3-0.5-0.4c0-0.1,0.5-0.2,0.5-0.2s-0.2-0.2-0.3-0.3c-0.1-0.1,0.3-0.2,0.3-0.2
					s-0.1-0.1-0.1-0.2c-0.1-0.1,0-0.1,0.1,0L132.6,146.4z"/>
				<path class="st9" d="M126.6,146.8l0.1,0.2c0,0,0.2-0.1,0.1,0c0,0.1-0.1,0.2-0.1,0.2s0.4,0.1,0.4,0.2c-0.1,0.1-0.3,0.3-0.3,0.3
					s0.5,0.1,0.5,0.2c0,0.1-0.3,0.3-0.4,0.3l0,0.2c0.1,0,0.7,0,0.6,0c0,0.1-0.4,0.3-0.6,0.4l0,0.1c0.2,0,0.6-0.1,0.5,0
					c0,0.1-0.3,0.4-0.4,0.5c-0.1,0,0,0.1-0.1,0.1l0,0c0,0,0,0,0.1,0c0.1,0,0.6,0,0.6,0c-0.1,0.5-0.3,0.6-0.6,0.7l0,0.1
					c0.3,0.1,0.8,0,0.8,0s-0.3,0.6-0.5,0.8c-0.1,0-0.1,0.1-0.2,0.1l0,0l1.1,0.3c0,0-0.1,0.3-0.4,0.4c-0.2,0.1-0.5,0.1-0.6,0.1l0,0.1
					l0.8,0.1c0,0,0.2,0.2-0.1,0.4c-0.1,0.1-0.4,0.1-0.6,0.2l0,0.2l0.4,0.1l0.1,0.3h-0.5l0.1,0.5l-1.7-0.4v-0.1l-0.4,0l0.1-0.3
					l0.3-0.1l0-0.2c-0.2,0-0.7,0-0.9-0.1c-0.2-0.1-0.1-0.4-0.1-0.4l1.1-0.1l0-0.1c-0.1,0-0.3,0-0.5-0.1c-0.2-0.1-0.7-0.5-0.7-0.5
					l1.3-0.2l0-0.1c0,0-0.1,0-0.1-0.1c-0.2-0.2-0.6-0.8-0.6-0.8s0.4,0.1,0.8,0l0-0.1c-0.1,0-0.1,0-0.2-0.1c-0.2-0.1-0.4-0.6-0.4-0.6
					s0.6-0.1,0.6-0.1c0.1,0,0,0,0,0l0.1-0.1c0,0,0.1,0,0,0c-0.1,0-0.5-0.4-0.5-0.4c0-0.1,0.3,0,0.5,0l0-0.1c-0.1,0-0.4-0.4-0.5-0.4
					c0,0,0.4,0,0.5,0v-0.1c-0.1,0-0.4-0.3-0.5-0.4c-0.1-0.1,0.5-0.2,0.5-0.2s-0.2-0.2-0.3-0.3c-0.1-0.1,0.3-0.2,0.3-0.2
					s-0.1,0-0.1-0.2c-0.1-0.1,0-0.1,0.1,0L126.6,146.8z"/>
				<path class="st9" d="M136.1,143l0.2,0.3c0.1,0,0.2-0.1,0.1,0.1c-0.1,0.1-0.2,0.2-0.2,0.2s0.6,0.1,0.5,0.3
					c-0.1,0.1-0.4,0.5-0.4,0.5s0.7,0.1,0.6,0.2c-0.1,0.1-0.4,0.4-0.6,0.5l0,0.2c0.2,0,0.9,0,0.9,0.1c-0.1,0.1-0.6,0.4-0.8,0.5l0,0.2
					c0.3,0,0.8-0.1,0.8,0c0,0.1-0.4,0.6-0.6,0.6c-0.1,0-0.1,0.2-0.1,0.2l0,0c0,0,0,0,0.1,0c0.1,0,0.9,0,0.9,0
					c-0.2,0.6-0.4,0.9-0.9,1l0,0.1c0.5,0.1,1.1,0.1,1.1,0.1s-0.4,0.9-0.7,1.1c-0.1,0.1-0.1,0.1-0.2,0.1l0,0l1.6,0.4
					c0,0-0.2,0.4-0.5,0.6c-0.3,0.2-0.7,0.2-0.9,0.2l0,0.1l1.1,0.2c0,0,0.3,0.3-0.1,0.6c-0.2,0.1-0.5,0.2-0.8,0.2l0,0.2l0.5,0.2
					l0.2,0.4h-0.6l0.1,0.6l-2.4-0.6l0-0.1h-0.5l0.2-0.4l0.4-0.1l0-0.3c-0.3,0-1,0-1.3-0.2c-0.3-0.2-0.2-0.6-0.2-0.6l1.6-0.2l0-0.1
					c-0.2,0-0.4,0-0.7-0.2c-0.3-0.2-0.9-0.8-0.9-0.8l1.8-0.2l0-0.1c-0.1,0-0.1-0.1-0.2-0.1c-0.3-0.2-0.8-1.1-0.8-1.1
					s0.6,0.2,1.1-0.1l0-0.1c-0.1,0-0.2,0-0.3-0.1c-0.3-0.2-0.6-0.8-0.6-0.8s0.8-0.2,0.9-0.1c0.1,0,0.1,0,0.1,0l0.1-0.1
					c0,0,0.1,0-0.1,0c-0.1,0-0.6-0.5-0.7-0.6c0-0.1,0.5,0,0.7,0l0-0.1c-0.1,0-0.6-0.5-0.6-0.6c-0.1-0.1,0.5,0,0.7,0l0-0.1
					c-0.2-0.1-0.6-0.5-0.7-0.6c-0.1-0.1,0.8-0.2,0.8-0.2s-0.3-0.3-0.4-0.5c-0.1-0.1,0.4-0.3,0.4-0.3s-0.1-0.1-0.2-0.2
					c-0.1-0.1,0.1-0.1,0.1-0.1L136.1,143z"/>
				<path class="st9" d="M123.2,146.8l0.1,0.2c0.1,0,0.2-0.1,0.1,0c-0.1,0.1-0.2,0.2-0.2,0.2s0.5,0.1,0.4,0.2c0,0.1-0.4,0.4-0.4,0.4
					s0.6,0.1,0.5,0.2c-0.1,0.1-0.3,0.4-0.5,0.4l0,0.2c0.1,0,0.8,0,0.7,0c0,0.1-0.5,0.4-0.6,0.4l0,0.2c0.2,0,0.6-0.1,0.6,0
					c0,0.1-0.3,0.5-0.4,0.5c-0.1,0,0,0.1-0.1,0.1l0,0c0,0,0,0,0.1,0c0.1,0,0.7,0,0.7,0c-0.1,0.5-0.3,0.7-0.7,0.8l0,0.1
					c0.4,0.1,0.9,0,0.9,0s-0.3,0.7-0.6,0.9c-0.1,0-0.1,0.1-0.2,0.1v0l1.3,0.4c0,0-0.2,0.3-0.4,0.5c-0.2,0.2-0.6,0.1-0.7,0.1l0,0.1
					l0.9,0.2c0,0,0.2,0.3-0.1,0.5c-0.2,0.1-0.4,0.1-0.7,0.2l0,0.2l0.4,0.1l0.2,0.3h-0.5l0.1,0.5l-1.9-0.5l0-0.1h-0.4l0.1-0.3
					l0.3-0.1l0-0.2c-0.2,0-0.8,0-1.1-0.2c-0.3-0.1-0.2-0.5-0.2-0.5l1.3-0.2l0-0.1c-0.1,0-0.3,0-0.6-0.1c-0.3-0.1-0.8-0.6-0.8-0.6
					l1.4-0.2l0-0.1c-0.1,0-0.1-0.1-0.1-0.1c-0.3-0.2-0.6-0.9-0.6-0.9s0.5,0.2,0.9-0.1l0-0.1c-0.1,0-0.2,0-0.3-0.1
					c-0.3-0.1-0.5-0.7-0.5-0.7s0.6-0.1,0.7-0.1c0.1,0,0,0,0.1,0l0.1-0.1c0,0,0.1,0-0.1,0c-0.1,0-0.5-0.4-0.5-0.5c0-0.1,0.4,0,0.6,0
					l0-0.1c-0.1,0-0.5-0.4-0.5-0.5c0-0.1,0.4,0,0.6,0l0-0.1c-0.1,0-0.5-0.4-0.6-0.5c-0.1-0.1,0.6-0.2,0.6-0.2s-0.2-0.2-0.3-0.4
					c-0.1-0.1,0.3-0.2,0.3-0.2s-0.1-0.1-0.2-0.2c-0.1-0.1,0.1-0.1,0.1-0.1L123.2,146.8z"/>
				<path class="st9" d="M150.5,144.3l0.1,0.2c0.1,0,0.2-0.1,0.1,0.1c-0.1,0.1-0.2,0.2-0.2,0.2s0.5,0.1,0.4,0.2
					c-0.1,0.1-0.4,0.4-0.4,0.4s0.6,0.1,0.5,0.2c-0.1,0.1-0.3,0.4-0.5,0.4l0,0.2c0.1,0,0.8,0,0.7,0c0,0.1-0.5,0.4-0.6,0.4l0,0.2
					c0.2,0,0.6-0.1,0.6,0c0,0.1-0.3,0.5-0.4,0.5c-0.1,0,0,0.1-0.1,0.1l0,0c0,0,0,0,0.1,0c0.1,0,0.7,0,0.7,0
					c-0.1,0.5-0.3,0.7-0.7,0.8l0,0.1c0.4,0.1,0.9,0,0.9,0s-0.3,0.7-0.6,0.9c-0.1,0-0.1,0.1-0.2,0.1v0l1.3,0.3c0,0-0.2,0.3-0.4,0.5
					c-0.2,0.2-0.6,0.1-0.7,0.1l0,0.1l0.9,0.2c0,0,0.2,0.3-0.1,0.5c-0.2,0.1-0.4,0.1-0.7,0.2l0,0.2l0.4,0.1l0.2,0.3h-0.5l0.1,0.5
					l-1.9-0.5l0-0.1h-0.4l0.1-0.3l0.3-0.1l0-0.2c-0.2,0-0.8,0-1.1-0.2c-0.3-0.1-0.2-0.5-0.2-0.5l1.3-0.2l0-0.1c-0.1,0-0.3,0-0.6-0.1
					c-0.3-0.2-0.8-0.6-0.8-0.6l1.4-0.2l0-0.1c-0.1,0-0.1,0-0.1-0.1c-0.3-0.2-0.6-0.9-0.6-0.9s0.5,0.2,0.9-0.1l0-0.1
					c-0.1,0-0.2,0-0.3-0.1c-0.3-0.1-0.5-0.7-0.5-0.7s0.6-0.1,0.7-0.1c0.1,0,0,0,0.1,0l0.1-0.1c0,0,0.1,0-0.1,0
					c-0.1,0-0.5-0.4-0.5-0.5c0-0.1,0.4,0,0.6,0l0-0.1c-0.1,0-0.5-0.4-0.5-0.5c0-0.1,0.4,0,0.6,0l0-0.1c-0.1,0-0.5-0.4-0.6-0.5
					c-0.1-0.1,0.6-0.2,0.6-0.2s-0.2-0.2-0.3-0.4c-0.1-0.1,0.3-0.2,0.3-0.2s-0.1-0.1-0.2-0.2c-0.1-0.1,0.1-0.1,0.1-0.1L150.5,144.3z"
					/>
				<path class="st9" d="M154,144.4l0.1,0.2c0.1,0,0.2-0.1,0.1,0c-0.1,0.1-0.2,0.2-0.2,0.2s0.5,0.1,0.4,0.2
					c-0.1,0.1-0.4,0.4-0.4,0.4s0.6,0.1,0.5,0.2c0,0.1-0.3,0.4-0.4,0.4l0,0.2c0.1,0,0.8,0,0.7,0c-0.1,0.1-0.5,0.4-0.6,0.4l0,0.2
					c0.2,0,0.6-0.1,0.6,0c0,0.1-0.3,0.5-0.5,0.5c-0.1,0,0,0.1-0.1,0.1l0,0c0,0,0,0,0.1,0c0.1,0,0.7,0,0.7,0
					c-0.1,0.5-0.3,0.7-0.7,0.8l0,0.1c0.4,0.1,0.9,0,0.9,0s-0.3,0.7-0.6,0.9c-0.1,0-0.1,0.1-0.2,0.1l0,0l1.3,0.4c0,0-0.2,0.3-0.4,0.5
					c-0.2,0.2-0.6,0.1-0.7,0.1l0,0.1l0.9,0.2c0,0,0.2,0.3-0.1,0.5c-0.2,0.1-0.4,0.1-0.7,0.2l0,0.2l0.4,0.1l0.2,0.3h-0.5l0.1,0.5
					l-1.9-0.5l0-0.1h-0.4l0.1-0.3l0.3-0.1l0-0.2c-0.2,0-0.8,0-1.1-0.2c-0.3-0.1-0.2-0.5-0.2-0.5l1.3-0.2v-0.1c-0.1,0-0.3,0-0.6-0.1
					c-0.2-0.2-0.8-0.6-0.8-0.6l1.4-0.2l0-0.1c0,0-0.1-0.1-0.1-0.1c-0.3-0.2-0.6-0.9-0.6-0.9s0.5,0.2,0.9-0.1v-0.1
					c-0.1,0-0.2,0-0.3-0.1c-0.3-0.1-0.5-0.7-0.5-0.7s0.6-0.1,0.7-0.1c0.1,0,0,0,0.1,0l0.1-0.1c0,0,0,0-0.1,0c-0.1,0-0.5-0.4-0.5-0.5
					c0-0.1,0.4,0,0.6,0l0-0.1c-0.1,0-0.5-0.4-0.5-0.5c-0.1-0.1,0.4,0,0.6,0l0-0.1c-0.1,0-0.5-0.4-0.6-0.5c-0.1-0.1,0.6-0.2,0.6-0.2
					s-0.2-0.2-0.3-0.4c-0.1-0.1,0.3-0.2,0.3-0.2s-0.1-0.1-0.2-0.2c-0.1-0.1,0-0.1,0.1-0.1L154,144.4z"/>
				<path class="st9" d="M156.5,146.8l0.1,0.2c0,0,0.1,0,0.1,0c0,0.1-0.1,0.1-0.1,0.1s0.4,0.1,0.3,0.2c0,0.1-0.3,0.3-0.3,0.3
					s0.4,0.1,0.4,0.1c0,0.1-0.2,0.3-0.3,0.3l0,0.1c0.1,0,0.6,0,0.5,0c0,0-0.4,0.3-0.5,0.3l0,0.1c0.2,0,0.5-0.1,0.5,0
					c0,0.1-0.3,0.4-0.3,0.4c-0.1,0,0,0.1-0.1,0.1l0,0c0,0,0,0,0.1,0c0.1,0,0.6,0,0.6,0c-0.1,0.4-0.2,0.6-0.5,0.6l0,0.1
					c0.3,0,0.7,0,0.7,0s-0.2,0.5-0.4,0.7c-0.1,0-0.1,0.1-0.1,0.1l0,0l1,0.3c0,0-0.1,0.3-0.3,0.4c-0.2,0.1-0.4,0.1-0.6,0.1v0.1
					l0.7,0.1c0,0,0.2,0.2-0.1,0.4c-0.1,0.1-0.3,0.1-0.5,0.1l0,0.1l0.3,0.1l0.1,0.2h-0.4l0.1,0.4l-1.5-0.3v-0.1h-0.3l0.1-0.2l0.3-0.1
					l0-0.2c-0.2,0-0.6,0-0.8-0.1c-0.2-0.1-0.1-0.4-0.1-0.4l1-0.1l0-0.1c-0.1,0-0.3,0-0.4-0.1c-0.2-0.1-0.6-0.5-0.6-0.5l1.1-0.1
					l0-0.1c0,0-0.1,0-0.1-0.1c-0.2-0.2-0.5-0.7-0.5-0.7s0.4,0.1,0.7,0v-0.1c-0.1,0-0.1,0-0.2-0.1c-0.2-0.1-0.4-0.5-0.4-0.5
					s0.5-0.1,0.6-0.1c0.1,0,0,0,0,0l0-0.1c0,0,0,0,0,0c-0.1,0-0.4-0.3-0.4-0.4c0-0.1,0.3,0,0.4,0l0-0.1c-0.1,0-0.4-0.3-0.4-0.4
					c0,0,0.3,0,0.4,0l0-0.1c-0.1,0-0.4-0.3-0.4-0.3c0-0.1,0.5-0.2,0.5-0.2s-0.2-0.2-0.2-0.3c0-0.1,0.2-0.2,0.2-0.2s-0.1,0-0.1-0.1
					c-0.1-0.1,0,0,0.1,0L156.5,146.8z"/>
				<g>
					<polygon class="st8" points="95.9,111.6 103.8,103.7 107.6,104.6 103.1,108.9 					"/>
					<path class="st8" d="M164.1,114.9l7.7,3.4l2.1,3.6L164.1,114.9z M167.3,120.5l6.9,3.4l3.3,4.3l-8.8-3L167.3,120.5z"/>
					<polygon class="st8" points="132.2,102.6 133.4,99.8 139.4,108.1 					"/>
				</g>
				<polygon class="st9" points="118.7,99.8 120.8,96.1 126,91.9 121.5,98.6 				"/>
				<polygon class="st9" points="94.6,127.5 107.7,119.2 116,113.9 106.5,116.8 				"/>
				<polygon class="st9" points="85.9,116.8 67.4,131.3 80.5,123 86.8,118.3 				"/>
				<polygon class="st9" points="156.3,102.8 151.6,110.7 158.4,102.8 				"/>
				<path class="st9" d="M191.2,143.1l0.2,0.4c0.1,0,0.3-0.1,0.2,0.1c-0.1,0.2-0.2,0.2-0.2,0.2s0.7,0.2,0.6,0.3
					c-0.1,0.2-0.5,0.5-0.5,0.5s0.8,0.1,0.7,0.3c-0.1,0.1-0.5,0.5-0.6,0.5l0,0.3c0.2,0,1.1,0,1,0.1c-0.1,0.1-0.7,0.5-0.9,0.6l0,0.2
					c0.3,0,0.9-0.1,0.9,0c0,0.1-0.5,0.7-0.6,0.7c-0.2,0-0.1,0.2-0.1,0.2l0,0c0,0,0,0,0.1,0c0.1,0,1,0.1,1,0.1c-0.2,0.7-0.5,1-1,1.1
					l0,0.2c0.6,0.1,1.3,0.1,1.3,0.1s-0.4,1-0.8,1.3c-0.1,0.1-0.2,0.1-0.3,0.2l0,0.1l1.8,0.5c0,0-0.2,0.5-0.6,0.7
					c-0.4,0.2-0.8,0.2-1.1,0.2l0,0.1l1.3,0.2c0,0,0.3,0.4-0.2,0.7c-0.2,0.1-0.6,0.2-0.9,0.2l0,0.2l0.6,0.2l0.2,0.5l-0.8,0l0.1,0.7
					l-2.7-0.7l0-0.1l-0.6,0l0.2-0.5l0.5-0.1l0-0.3c-0.3,0-1.1,0-1.5-0.2c-0.4-0.2-0.2-0.7-0.2-0.7l1.8-0.2l0-0.1
					c-0.2,0-0.5,0-0.8-0.2c-0.3-0.2-1.1-0.9-1.1-0.9l2-0.3l0-0.2c-0.1,0-0.1-0.1-0.2-0.1c-0.4-0.3-0.9-1.3-0.9-1.3s0.7,0.2,1.2-0.1
					l0-0.2c-0.1,0-0.2-0.1-0.4-0.1c-0.4-0.2-0.6-1-0.6-1s0.9-0.2,1-0.2c0.1,0,0.1,0,0.1,0l0.1-0.1c0,0,0.1,0-0.1,0
					c-0.1,0-0.7-0.6-0.8-0.7c0-0.1,0.5,0,0.8,0l0-0.1c-0.2-0.1-0.7-0.6-0.7-0.7c-0.1-0.1,0.6,0,0.8-0.1l0-0.2
					c-0.2,0-0.7-0.5-0.8-0.6c-0.1-0.1,0.9-0.3,0.9-0.3s-0.3-0.4-0.4-0.5c-0.1-0.2,0.5-0.3,0.5-0.3s-0.1-0.1-0.2-0.2
					c-0.1-0.2,0.1-0.1,0.2-0.1L191.2,143.1z"/>
				<path class="st9" d="M196.2,143.2l0.2,0.3c0.1,0,0.3-0.1,0.2,0.1c-0.1,0.2-0.2,0.3-0.2,0.3s0.7,0.2,0.6,0.3
					c-0.1,0.2-0.5,0.5-0.5,0.5s0.8,0.1,0.7,0.3c-0.1,0.1-0.5,0.5-0.6,0.5l0,0.3c0.2,0,1.1,0,1,0.1c-0.1,0.1-0.7,0.5-0.9,0.6l0,0.2
					c0.3,0,0.9-0.1,0.9,0c0,0.1-0.5,0.7-0.6,0.7c-0.1,0-0.1,0.2-0.1,0.2l0,0c0,0,0,0,0.1,0c0.1,0,1,0.1,1,0.1c-0.2,0.7-0.5,1-1,1.1
					l0,0.2c0.6,0.1,1.3,0.1,1.3,0.1s-0.4,1-0.8,1.3c-0.1,0.1-0.2,0.1-0.3,0.2l0,0.1l1.8,0.5c0,0-0.2,0.5-0.6,0.7
					c-0.3,0.2-0.8,0.2-1,0.2l0,0.1l1.3,0.2c0,0,0.3,0.4-0.2,0.7c-0.2,0.1-0.6,0.2-0.9,0.2l0,0.2l0.6,0.2l0.2,0.5l-0.8,0l0.1,0.7
					l-2.7-0.7l0-0.1l-0.6,0l0.2-0.5l0.5-0.1l0-0.3c-0.3,0-1.1,0-1.5-0.2c-0.4-0.2-0.2-0.7-0.2-0.7l1.8-0.2l0-0.1
					c-0.2,0-0.5,0-0.8-0.2c-0.4-0.2-1.1-0.9-1.1-0.9l2-0.3l0-0.2c-0.1,0-0.1-0.1-0.2-0.1c-0.4-0.3-0.9-1.3-0.9-1.3s0.7,0.2,1.2-0.1
					l0-0.2c-0.1,0-0.2-0.1-0.4-0.1c-0.4-0.2-0.6-1-0.6-1s0.9-0.2,1-0.2c0.1,0,0.1,0,0.1,0l0.1-0.1c0,0,0.1,0-0.1,0
					c-0.1,0-0.7-0.6-0.8-0.7c0-0.1,0.5,0,0.8,0l0-0.1c-0.2-0.1-0.7-0.6-0.7-0.7c-0.1-0.1,0.6,0,0.8-0.1l0-0.2
					c-0.2,0-0.7-0.5-0.8-0.6c-0.1-0.1,0.9-0.3,0.9-0.3s-0.3-0.4-0.4-0.5c-0.1-0.2,0.5-0.3,0.5-0.3s-0.1-0.1-0.2-0.2
					c-0.1-0.2,0.1-0.1,0.2-0.1L196.2,143.2z"/>
				<path class="st9" d="M199.8,146.6l0.1,0.3c0.1,0,0.2-0.1,0.1,0.1c-0.1,0.1-0.2,0.2-0.2,0.2s0.5,0.1,0.5,0.2
					c-0.1,0.1-0.4,0.4-0.4,0.4s0.6,0.1,0.6,0.2c-0.1,0.1-0.4,0.4-0.5,0.4l0,0.2c0.1,0,0.8,0,0.8,0c-0.1,0.1-0.6,0.4-0.7,0.4l0,0.2
					c0.2,0,0.7-0.1,0.7,0c0,0.1-0.4,0.5-0.5,0.5c-0.1,0,0,0.1-0.1,0.1l0,0c0,0,0,0,0.1,0c0.1,0,0.8,0.1,0.8,0.1
					c-0.1,0.5-0.4,0.8-0.8,0.8l0,0.1c0.4,0.1,1,0,1,0s-0.3,0.8-0.6,1c-0.1,0-0.1,0.1-0.2,0.1v0l1.4,0.4c0,0-0.2,0.4-0.4,0.5
					c-0.3,0.2-0.6,0.1-0.8,0.1l0,0.1l1,0.2c0,0,0.3,0.3-0.1,0.5c-0.2,0.1-0.5,0.2-0.7,0.2l0,0.2l0.5,0.1l0.2,0.4H201l0.1,0.5
					l-2.1-0.5l0-0.1h-0.5l0.1-0.4l0.4-0.1l0-0.2c-0.2,0-0.9,0-1.1-0.2c-0.3-0.2-0.2-0.5-0.2-0.5l1.4-0.2l0-0.1c-0.1,0-0.4,0-0.6-0.1
					c-0.3-0.2-0.8-0.7-0.8-0.7l1.5-0.2l0-0.1c0,0-0.1,0-0.1-0.1c-0.3-0.2-0.7-1-0.7-1s0.5,0.2,0.9-0.1v-0.1c-0.1,0-0.2,0-0.3-0.1
					c-0.3-0.2-0.5-0.7-0.5-0.7s0.7-0.1,0.8-0.1c0.1,0,0,0,0.1,0l0.1-0.1c0,0,0.1,0-0.1,0c-0.1,0-0.6-0.4-0.6-0.5c0-0.1,0.4,0,0.6,0
					l0-0.1c-0.1,0-0.5-0.5-0.6-0.5c-0.1-0.1,0.4,0,0.6,0l0-0.1c-0.1,0-0.5-0.4-0.6-0.5c-0.1-0.1,0.7-0.2,0.7-0.2s-0.3-0.3-0.3-0.4
					c-0.1-0.1,0.4-0.2,0.4-0.2s-0.1-0.1-0.2-0.2c-0.1-0.1,0.1-0.1,0.1,0L199.8,146.6z"/>
				<path class="st9" d="M187.1,146.1l0.1,0.3c0,0,0.2-0.1,0.1,0c-0.1,0.1-0.2,0.2-0.2,0.2s0.5,0.1,0.5,0.2
					c-0.1,0.1-0.4,0.4-0.4,0.4s0.6,0.1,0.6,0.2c-0.1,0.1-0.4,0.4-0.5,0.4l0,0.2c0.2,0,0.8,0,0.8,0c0,0.1-0.6,0.4-0.7,0.4l0,0.2
					c0.2,0,0.7-0.1,0.7,0c0,0.1-0.4,0.5-0.5,0.5c-0.1,0-0.1,0.1-0.1,0.2l0,0c0,0,0,0,0.1,0c0.1,0,0.8,0,0.8,0
					c-0.1,0.5-0.4,0.8-0.7,0.8l0,0.1c0.4,0.1,1,0,1,0s-0.3,0.8-0.6,1c-0.1,0-0.1,0.1-0.2,0.1l0,0l1.4,0.4c0,0-0.2,0.4-0.4,0.5
					c-0.3,0.2-0.6,0.1-0.8,0.2l0,0.1l1,0.2c0,0,0.3,0.3-0.1,0.5c-0.2,0.1-0.5,0.2-0.7,0.2l0,0.2l0.5,0.1l0.2,0.4h-0.6l0.1,0.5
					l-2.1-0.5l0-0.1l-0.5,0l0.1-0.4l0.4-0.1l0-0.2c-0.2,0-0.9,0-1.1-0.2c-0.3-0.2-0.2-0.5-0.2-0.5l1.4-0.2l0-0.1
					c-0.1,0-0.4,0-0.6-0.1c-0.3-0.2-0.8-0.7-0.8-0.7l1.5-0.2l0-0.1c0,0-0.1-0.1-0.1-0.1c-0.3-0.2-0.7-1-0.7-1s0.5,0.2,0.9-0.1l0-0.1
					c-0.1,0-0.2,0-0.3-0.1c-0.3-0.1-0.5-0.7-0.5-0.7s0.7-0.1,0.8-0.1c0.1,0,0,0,0.1,0l0.1-0.1c0,0,0.1,0-0.1,0
					c-0.1,0-0.6-0.4-0.6-0.5c0-0.1,0.4,0,0.6,0l0-0.1c-0.1,0-0.5-0.5-0.6-0.5c-0.1-0.1,0.4,0,0.6,0l0-0.1c-0.1,0-0.5-0.4-0.6-0.5
					c-0.1-0.1,0.7-0.2,0.7-0.2s-0.3-0.3-0.3-0.4c-0.1-0.1,0.4-0.2,0.4-0.2s-0.1-0.1-0.2-0.2c-0.1-0.1,0.1-0.1,0.1-0.1L187.1,146.1z"
					/>
				<path class="st9" d="M202.3,147.8l0.1,0.2c0,0,0.2-0.1,0.1,0.1c-0.1,0.1-0.1,0.2-0.1,0.2s0.5,0.1,0.4,0.2c0,0.1-0.4,0.4-0.4,0.4
					s0.6,0.1,0.5,0.2c-0.1,0.1-0.3,0.3-0.4,0.4l0,0.2c0.1,0,0.7,0,0.7,0c0,0.1-0.5,0.4-0.6,0.4l0,0.2c0.2,0,0.6-0.1,0.6,0
					c0,0.1-0.3,0.5-0.4,0.5c-0.1,0,0,0.1-0.1,0.1l0,0c0,0,0,0,0.1,0c0.1,0,0.7,0,0.7,0c-0.1,0.5-0.3,0.7-0.7,0.8l0,0.1
					c0.4,0.1,0.9,0,0.9,0s-0.3,0.7-0.6,0.9c-0.1,0-0.1,0.1-0.2,0.1v0l1.3,0.3c0,0-0.2,0.3-0.4,0.5c-0.2,0.2-0.6,0.1-0.7,0.1l0,0.1
					l0.9,0.2c0,0,0.2,0.3-0.1,0.5c-0.2,0.1-0.4,0.1-0.7,0.2l0,0.2l0.4,0.1l0.2,0.3l-0.5,0l0.1,0.5l-1.9-0.5l0-0.1l-0.4,0l0.1-0.3
					l0.3-0.1l0-0.2c-0.2,0-0.8,0-1.1-0.2c-0.3-0.1-0.2-0.5-0.2-0.5l1.3-0.2l0-0.1c-0.1,0-0.3,0-0.6-0.1c-0.2-0.2-0.8-0.6-0.8-0.6
					l1.4-0.2l0-0.1c0,0-0.1-0.1-0.1-0.1c-0.3-0.2-0.6-0.9-0.6-0.9s0.5,0.1,0.9-0.1v-0.1c-0.1,0-0.2,0-0.2-0.1
					c-0.3-0.1-0.5-0.7-0.5-0.7s0.6-0.1,0.7-0.1c0.1,0,0,0,0.1,0l0.1-0.1c0,0,0.1,0-0.1,0c-0.1,0-0.5-0.4-0.5-0.5c0-0.1,0.4,0,0.6,0
					l0-0.1c-0.1,0-0.5-0.4-0.5-0.5c0,0,0.4,0,0.6,0l0-0.1c-0.1,0-0.5-0.4-0.6-0.5c0-0.1,0.6-0.2,0.6-0.2s-0.2-0.2-0.3-0.4
					c-0.1-0.1,0.3-0.2,0.3-0.2s-0.1-0.1-0.2-0.2c-0.1-0.1,0-0.1,0.1-0.1L202.3,147.8z"/>
				<path class="st9" d="M193.9,139.8l0.2,0.4c0.1,0,0.2-0.1,0.2,0.1c-0.1,0.2-0.2,0.3-0.2,0.3s0.6,0.2,0.6,0.4
					c-0.1,0.2-0.5,0.6-0.5,0.6s0.8,0.2,0.7,0.3c-0.1,0.2-0.4,0.6-0.6,0.7l0,0.3c0.2,0,1,0,0.9,0.1c-0.1,0.1-0.7,0.7-0.8,0.7l0,0.3
					c0.3,0,0.9-0.2,0.8,0c0,0.2-0.5,0.9-0.6,0.9c-0.1,0-0.1,0.2-0.1,0.2l0,0c0,0,0,0.1,0.1,0c0.1,0,1,0.1,1,0.1
					c-0.2,0.9-0.4,1.3-0.9,1.4l0,0.2c0.5,0.1,1.2,0.1,1.2,0.1s-0.4,1.2-0.8,1.6c-0.1,0.1-0.2,0.1-0.3,0.2l0,0.1l1.8,0.6
					c0,0-0.2,0.6-0.6,0.9c-0.3,0.3-0.8,0.2-1,0.2l0,0.1l1.2,0.3c0,0,0.3,0.5-0.2,0.8c-0.2,0.2-0.6,0.3-0.9,0.3l0,0.3l0.6,0.2
					l0.2,0.6l-0.7,0l0.1,0.9l-2.6-0.8l0-0.2l-0.6,0l0.2-0.6l0.4-0.2l0-0.4c-0.3,0-1.1,0-1.4-0.3c-0.4-0.3-0.2-0.8-0.2-0.8l1.7-0.3
					l0-0.2c-0.2,0-0.4,0-0.8-0.2c-0.3-0.3-1-1.1-1-1.1l1.9-0.3l0-0.2c-0.1,0-0.1-0.1-0.2-0.1c-0.4-0.4-0.9-1.6-0.9-1.6
					s0.7,0.3,1.2-0.1l0-0.2c-0.1,0-0.2-0.1-0.3-0.2c-0.4-0.2-0.6-1.2-0.6-1.2s0.9-0.2,1-0.2c0.1,0,0.1,0,0.1,0l0.1-0.2
					c0,0,0.1,0-0.1,0c-0.1,0-0.7-0.7-0.7-0.9c0-0.2,0.5-0.1,0.8,0l0-0.2c-0.2-0.1-0.6-0.7-0.7-0.8c-0.1-0.1,0.6,0,0.8-0.1l0-0.2
					c-0.2-0.1-0.7-0.6-0.7-0.8c-0.1-0.2,0.8-0.4,0.8-0.4s-0.3-0.4-0.4-0.6c-0.1-0.2,0.4-0.4,0.4-0.4s-0.1-0.1-0.2-0.3
					c-0.1-0.2,0.1-0.1,0.1-0.1L193.9,139.8z"/>
				<path class="st9" d="M212.3,149.7l0.1,0.2c0,0,0.2-0.1,0.1,0c-0.1,0.1-0.2,0.2-0.2,0.2s0.5,0.1,0.4,0.2c0,0.1-0.4,0.4-0.4,0.4
					s0.6,0.1,0.5,0.2c0,0.1-0.3,0.4-0.4,0.4l0,0.2c0.1,0,0.7,0,0.7,0c-0.1,0.1-0.5,0.4-0.6,0.4l0,0.2c0.2,0,0.6-0.1,0.6,0
					c0,0.1-0.3,0.5-0.4,0.5c-0.1,0,0,0.1-0.1,0.1l0,0c0,0,0,0,0.1,0c0.1,0,0.7,0,0.7,0c-0.1,0.5-0.3,0.7-0.7,0.8l0,0.1
					c0.4,0.1,0.9,0,0.9,0s-0.3,0.7-0.6,0.9c-0.1,0-0.1,0.1-0.2,0.1l0,0l1.3,0.3c0,0-0.2,0.3-0.4,0.5c-0.2,0.2-0.6,0.1-0.7,0.1l0,0.1
					l0.9,0.2c0,0,0.2,0.3-0.1,0.5c-0.2,0.1-0.4,0.1-0.6,0.2l0,0.2l0.4,0.1l0.2,0.3h-0.5l0.1,0.5l-1.9-0.5l0-0.1h-0.4l0.1-0.3
					l0.3-0.1l0-0.2c-0.2,0-0.8,0-1.1-0.2c-0.3-0.1-0.2-0.5-0.2-0.5l1.3-0.1l0-0.1c-0.1,0-0.3,0-0.6-0.1c-0.2-0.2-0.8-0.6-0.8-0.6
					l1.4-0.2l0-0.1c0,0-0.1,0-0.1-0.1c-0.3-0.2-0.6-0.9-0.6-0.9s0.5,0.2,0.9-0.1l0-0.1c-0.1,0-0.2,0-0.3-0.1
					c-0.3-0.1-0.4-0.7-0.4-0.7s0.6-0.1,0.7-0.1c0.1,0,0,0,0,0l0.1-0.1c0,0,0.1,0-0.1,0c-0.1,0-0.5-0.4-0.5-0.5c0-0.1,0.4,0,0.6,0
					l0-0.1c-0.1,0-0.5-0.4-0.5-0.5c-0.1-0.1,0.4,0,0.6,0l0-0.1c-0.1,0-0.5-0.4-0.6-0.5c-0.1-0.1,0.6-0.2,0.6-0.2s-0.2-0.2-0.3-0.4
					c-0.1-0.1,0.3-0.2,0.3-0.2s-0.1-0.1-0.2-0.2c-0.1-0.1,0.1-0.1,0.1,0L212.3,149.7z"/>
				<path class="st9" d="M215.5,149.1l0.2,0.3c0.1,0,0.2-0.1,0.1,0.1c-0.1,0.1-0.2,0.2-0.2,0.2s0.6,0.1,0.5,0.3
					c-0.1,0.1-0.4,0.4-0.4,0.4s0.7,0.1,0.6,0.2c-0.1,0.1-0.4,0.4-0.5,0.5l0,0.2c0.2,0,0.9,0,0.9,0c-0.1,0.1-0.6,0.4-0.8,0.5l0,0.2
					c0.2,0,0.8-0.1,0.7,0c0,0.1-0.4,0.6-0.5,0.6c-0.1,0-0.1,0.1-0.1,0.2l0,0c0,0,0,0,0.1,0c0.1,0,0.9,0.1,0.9,0.1
					c-0.2,0.6-0.4,0.9-0.8,1l0,0.1c0.5,0.1,1.1,0.1,1.1,0.1s-0.4,0.8-0.7,1.1c-0.1,0-0.1,0.1-0.2,0.1l0,0l1.6,0.4
					c0,0-0.2,0.4-0.5,0.6c-0.3,0.2-0.7,0.1-0.9,0.2l0,0.1l1.1,0.2c0,0,0.3,0.3-0.2,0.6c-0.2,0.1-0.5,0.2-0.8,0.2l0,0.2l0.5,0.1
					l0.2,0.4l-0.6,0l0.1,0.6l-2.3-0.6l0-0.1l-0.5,0l0.2-0.4l0.4-0.1l0-0.2c-0.3,0-1,0-1.3-0.2c-0.3-0.2-0.2-0.6-0.2-0.6l1.6-0.2
					l0-0.1c-0.2,0-0.4,0-0.7-0.2c-0.3-0.2-0.9-0.7-0.9-0.7l1.7-0.2l0-0.1c-0.1,0-0.1-0.1-0.2-0.1c-0.3-0.2-0.8-1.1-0.8-1.1
					s0.6,0.2,1.1-0.1l0-0.1c-0.1,0-0.2,0-0.3-0.1c-0.3-0.2-0.6-0.8-0.6-0.8s0.8-0.2,0.9-0.1c0.1,0,0,0,0.1,0l0.1-0.1
					c0,0,0.1,0-0.1,0c-0.1,0-0.6-0.5-0.7-0.6c0-0.1,0.4,0,0.7,0l0-0.1c-0.1-0.1-0.6-0.5-0.6-0.6c-0.1-0.1,0.5,0,0.7,0l0-0.1
					c-0.2,0-0.6-0.4-0.7-0.5c-0.1-0.1,0.7-0.2,0.7-0.2s-0.3-0.3-0.4-0.5c-0.1-0.1,0.4-0.3,0.4-0.3s-0.1-0.1-0.2-0.2
					c-0.1-0.1,0.1-0.1,0.1-0.1L215.5,149.1z"/>
				<path class="st9" d="M219.1,151.7l0.1,0.2c0.1,0,0.2-0.1,0.1,0c-0.1,0.1-0.1,0.2-0.1,0.2s0.5,0.1,0.4,0.2
					c-0.1,0.1-0.4,0.4-0.4,0.4s0.6,0.1,0.5,0.2c0,0.1-0.3,0.4-0.4,0.4l0,0.2c0.1,0,0.7,0,0.7,0c0,0.1-0.5,0.4-0.6,0.4l0,0.2
					c0.2,0,0.6-0.1,0.6,0c0,0.1-0.3,0.5-0.4,0.5c-0.1,0,0,0.1-0.1,0.1l0,0c0,0,0,0,0.1,0c0.1,0,0.7,0,0.7,0
					c-0.1,0.5-0.3,0.7-0.7,0.8l0,0.1c0.4,0.1,0.9,0,0.9,0s-0.3,0.7-0.6,0.9c-0.1,0-0.1,0.1-0.2,0.1v0l1.3,0.4c0,0-0.2,0.3-0.4,0.5
					c-0.2,0.2-0.6,0.1-0.7,0.1l0,0.1l0.9,0.2c0,0,0.2,0.3-0.1,0.5c-0.2,0.1-0.4,0.1-0.7,0.2l0,0.2l0.4,0.1l0.2,0.3h-0.5l0.1,0.5
					l-1.9-0.5l0-0.1H218l0.1-0.3l0.3-0.1l0-0.2c-0.2,0-0.8,0-1.1-0.2c-0.3-0.1-0.2-0.5-0.2-0.5l1.3-0.2l0-0.1c-0.1,0-0.3,0-0.6-0.1
					c-0.2-0.2-0.8-0.6-0.8-0.6l1.4-0.2l0-0.1c0,0-0.1,0-0.1-0.1c-0.3-0.2-0.6-0.9-0.6-0.9s0.5,0.2,0.9-0.1l0-0.1
					c-0.1,0-0.2,0-0.3-0.1c-0.3-0.1-0.4-0.7-0.4-0.7s0.6-0.1,0.7-0.1c0.1,0,0,0,0.1,0l0.1-0.1c0,0,0.1,0-0.1,0
					c-0.1,0-0.5-0.4-0.5-0.5c0-0.1,0.4,0,0.6,0V154c-0.1,0-0.5-0.4-0.5-0.5c0-0.1,0.4,0,0.6,0l0-0.1c-0.1,0-0.5-0.4-0.5-0.4
					c-0.1-0.1,0.6-0.2,0.6-0.2s-0.2-0.2-0.3-0.4c-0.1-0.1,0.3-0.2,0.3-0.2s-0.1-0.1-0.2-0.2c-0.1-0.1,0.1-0.1,0.1,0L219.1,151.7z"/>
				<path class="st9" d="M21.3,160.4c18.1-8.5,38.6-10.5,57.5-3.7c0.4,0.1,0.4,0.2,0.7,0.4c-1.6,0.2-6.3-0.7-6.3-0.7
					C50.8,153.4,43.2,155.6,21.3,160.4L21.3,160.4z"/>
			</g>
		</g>
	</g>
	<path d="M128.8,210.1c-44.8,0-81.3-36.5-81.3-81.3c0-44.8,36.5-81.3,81.3-81.3c44.8,0,81.3,36.5,81.3,81.3
		C210.1,173.6,173.6,210.1,128.8,210.1z M128.8,49C84.8,49,49,84.8,49,128.8c0,44,35.8,79.7,79.7,79.7s79.7-35.8,79.7-79.7
		C208.5,84.8,172.7,49,128.8,49z"/>
	<path class="st10" d="M136.9,124.8c0.8-2.5-0.2-5.3-1.2-6.8c-1.9-2.9-0.7-5.3-0.7-5.3c-1.7,0.8-2.1,3.9-2.1,3.9
		c0.4-11-3.7-14.2-3.7-14.2c2.2,9.3-7.2,12.5-7.6,17.9c-0.2,2,0.2,3.5,0.7,4.7C124.6,124.7,130.6,124.2,136.9,124.8z"/>
	<path d="M128.8,248.5C62.7,248.5,9,194.8,9,128.8C9,62.7,62.7,9,128.8,9s119.7,53.7,119.7,119.7
		C248.5,194.8,194.8,248.5,128.8,248.5z M128.8,13C64.9,13,13,64.9,13,128.8c0,63.8,51.9,115.8,115.8,115.8s115.8-51.9,115.8-115.8
		C244.5,64.9,192.6,13,128.8,13z"/>
	<polygon points="42.8,66.6 45.7,72.4 51.8,72.5 47.5,77.9 48.6,84.2 42.8,81.2 37.1,84.2 38.2,77.9 33.3,72.5 40,72.4 	"/>
	<g>
		<defs>
			<circle id="SVGID_4_" cx="128.6" cy="128.2" r="80.3"/>
		</defs>
		<clipPath id="SVGID_5_">
			<use xlink:href="#SVGID_4_"  style="overflow:visible;"/>
		</clipPath>
		<g class="st11">
			<path d="M148.1,101.9c-3.6-5.4-1.6-9.8-1.6-10l4.1-8.5l-8.5,3.9c-0.4,0.2-0.7,0.3-1,0.5c-2-19.3-9.9-25.7-10.3-26.1l-7.6-6
				l2.2,9.5c3,12.5-3.6,20.1-9.9,27.4c-4.5,5.2-8.8,10.2-9.3,16.6c-1.2,14.5,7.5,21.3,8.9,22.3c0.5,0.4,1.1,0.8,1.7,1.1l0.1,0.1
				l-8.1,4.3l20.4-1.5c11.3-1.1,18.6-5,21.8-11.7C154.5,116.3,151.7,107.3,148.1,101.9z"/>
			<path class="st12" d="M134.5,130.1c0,0-15.5,4-19-3.3c-3.6-7.3,7.9-22.4,7.9-22.4l8.5-1.7l9.1,4l2.7,7.7l-3,9.1"/>
			<path class="st12" d="M117.1,128.8c0,0-8.7-5.8-7.6-19.3c1.1-13.5,24.7-21.6,19.2-45c0,0,10.3,8.1,9.4,35.9c0,0,1.2-8,5.4-9.9
				c0,0-2.9,6.1,1.8,13.3c4.7,7.2,10.1,25.8-16.5,28.4c0,0,11.2-3.8,9.8-12.4c0,0-4.7,5.4-10.3,5.1c0,0,6.9-5.4,1-15.2
				c0,0-1.7,4.7-6.3,7.1C118.5,119.1,116.8,123.3,117.1,128.8z"/>
			<path class="st13" d="M123,129.6c0,0-8.9-4-8.1-13.9s14.3-17.7,16.4-32.3c0,0,4.8,6.7,2.4,25.1c0,0,1.8-2.5,4.9-5.6
				c0,0,0.7,4,4.2,9.3c3.5,5.3,5.7,18.2-13.8,20.1c0,0,8.2-2.8,7.2-9.1c0,0-3.5,4-7.5,3.7c0,0,5-4,0.7-11.1c0,0-1.2,3.5-4.6,5.2
				C121.4,122.7,122.7,125.6,123,129.6z"/>
			<g>
				<path class="st9" d="M149.2,130.3c-8.4-2.8-22.6-2.9-31.4-1.5c-2.7,0.4-11.5,2-11.5,5.1c0,0.4,1.9,7.9,2.2,9l0-0.3
					c0,1.4,2.2,2.7,5.8,3.7l-0.6-2.8l11.4-3.7l10.4,0l11,3.7l-0.6,2.8c3.4-0.9,5.5-2.1,5.8-3.4c0,0,0,0,0,0l2.2-8.7
					C154.3,132.3,151,130.9,149.2,130.3z M108.5,142.2C108.5,142.2,108.5,142.2,108.5,142.2C108.5,142.2,108.5,142.2,108.5,142.2z"
					/>
				<path d="M119.6,151.3l-6.6-1.8c-6.2-1.7-8.1-4.1-8.5-6l-0.3-1.1c-2-7.8-2-8-2-8.5c0-5.1,8.1-7.4,14.8-8.4
					c9.5-1.5,24.6-1.4,33.8,1.7l0,0c7,2.4,7.5,5.7,7.2,7.4l0,0.2l-2.2,8.6c-0.6,2.6-3.4,4.6-8.5,6l-6.6,1.8l1.2-5.6l-7.2-2.4l-8.8,0
					l-7.6,2.4L119.6,151.3z M124.3,136.5l12,0l11.8,3.9l1.5-6.2c-0.3-0.2-1-0.5-2.1-0.9l0,0c-7.4-2.5-20.6-2.6-29.1-1.3
					c-4.1,0.6-7,1.6-8,2.2c0.3,1.4,1.1,4.5,1.5,6.2l0.1,0L124.3,136.5z"/>
			</g>
			<path class="st14" d="M108.5,142.9c-0.3-1.1-2.2-8.5-2.2-9c0-3.1,8.7-4.7,11.5-5.1c8.9-1.4,23.1-1.3,31.4,1.5
				c1.8,0.6,5,1.9,4.7,3.9l-2.2,8.7c0.1-0.9-0.5-1.4-1.4-2c-4-2.8-14.1-3.4-19.1-3.5c-5.7-0.1-15.6,0.4-20.5,2.9
				c-1,0.5-2.2,1.2-2.2,2.3L108.5,142.9L108.5,142.9z"/>
			<path class="st9" d="M130.1,137.2c12,0,21.7,2.4,21.7,5.5c0,1.4-2.2,2.7-5.8,3.7l0.6-2.8l-11-3.7l-10.4,0l-11.4,3.7l0.6,2.8
				c-3.6-1-5.8-2.3-5.8-3.7C108.5,139.6,118.2,137.2,130.1,137.2L130.1,137.2z"/>
			<g>
				<path class="st9" d="M135.3,140.7l-10,0l-10.5,3.4l15.3,69.1l15.3-69.1L135.3,140.7z M115.9,144.6l8.4-2.7l3.9,58.2L115.9,144.6
					z"/>
				<path d="M130.1,227.8l-18.9-85.4l13.5-4.3l11.3,0l13.1,4.3L130.1,227.8z M127.7,143.3l3.4,51l10.8-48.6l-7.1-2.4L127.7,143.3z
					 M119.5,146.2l2.7,12.2l-0.9-12.8L119.5,146.2z"/>
			</g>
			<g>
				<path class="st9" d="M114.8,144.1l10.5-3.4l4.8,72.5L114.8,144.1L114.8,144.1z M115.9,144.6l12.3,55.5l-3.9-58.2L115.9,144.6
					L115.9,144.6z"/>
				<polygon class="st9" points="130.1,213.2 125.3,140.7 135.3,140.7 130.1,213.2 				"/>
				<polygon class="st9" points="135.3,140.7 145.4,144.1 130.1,213.2 135.3,140.7 				"/>
			</g>
			<path class="st15" d="M134.5,141.4c0.5,0,10,3.2,10,3.2L131.9,202v-60.5H134.5z"/>
			<path class="st0" d="M126,141.4c-0.5,0-10,3.2-10,3.2l12.6,57.4v-60.5H126z"/>
		</g>
	</g>
	<polygon points="214.4,66.6 217.3,72.4 223.3,72.5 219.1,77.9 220.2,84.2 214.4,81.2 208.7,84.2 209.8,77.9 204.8,72.5 211.6,72.4 
			"/>
	<g>
		<path d="M204.4,153.7l-8.7-17.9c-1.4-3.1-4.3-4.5-8.5-4.2c-2.9,0.3-6,1.3-9,2.4l-0.1,0c-3.2,1.3-7.1,3.1-11.2,5
			c-11.2,5.1-25.2,11.5-35.7,13.6l-0.7,0.2c-0.6,0.1-1.2,0.3-1.9,0.4c-1.5,0.3-2.9,0.6-4.2,0.9l-0.1,0c-10.7,2.6-27.3,2.1-38.7-1.1
			l0.9-2.9c0.3-1,0.6-1.7,0.8-2.4c0-0.1,0.1-0.3,0.1-0.4l0.1-0.5c0.2-1.6-0.2-3.9-3.4-6.3c-1.2-0.9-2.6-1.7-4.2-2.3
			c-0.3-0.1-0.7-0.3-1-0.4c-1.2-0.5-2.5-0.8-3.7-1.1c-5.9-1.3-8.3,0.5-9.3,2.3l-8.7,18.1c-0.1,0.2-0.2,0.3-0.3,0.5l-0.1,0.3
			c0,0,0,0,0,0l-0.1,0.2v0c-0.5,1.9-0.3,4.8,3,8.4c3.7,4.1,9.5,6.9,11.1,7.6c9.1,4.3,22.1,6.6,35.5,6.6c6.5,0,13.1-0.5,19.4-1.7
			c2-0.3,4-0.7,6-1.1c15.4-3.2,29.5-9.1,42.4-15.1c0.9-0.4,1.8-0.8,2.8-1.3c1.6-0.8,3.3-1.5,5-2.2l0.3-0.1c4.6-2,7.7-2.9,9.6-3.3
			c-0.1,0.4-0.3,0.8-0.4,1.3l-1.4,3.5l-1.5,3.4c-0.3,0.6-0.4,0.9-0.4,0.9l-1.8,3.8l5.6-1.7c1-0.3,10.2-3.3,12.2-9.8l0.3-0.9
			C205.2,154.6,204.4,153.7,204.4,153.7z"/>
		<path class="st16" d="M68,140.5c-2.9,6-5.8,12-8.6,18c0.9-2.3,3.7-2.2,6.8-1.6c4.7,1.1,13.1,4.5,12.7,8.4c0,0.2-0.1,0.4-0.1,0.6
			c2.2-6.6,4.4-13.1,6.6-19.7c0.7-5.1-14.4-10.5-17-6.3C68.1,140.1,68,140.3,68,140.5z"/>
		<path d="M85.7,146.4C85.7,146.4,85.7,146.4,85.7,146.4L85.7,146.4c0.3-1.7-0.9-3.3-2.6-4.6c-1.1-0.8-2.4-1.5-3.8-2.1
			c-0.3-0.1-0.6-0.3-0.9-0.4c-1.1-0.4-2.3-0.8-3.4-1c-3.2-0.7-6.2-0.6-7.2,1.4c0,0,0,0,0,0c-0.1,0.2-0.1,0.3-0.2,0.5l0,0
			c-2.8,5.8-5.7,11.7-8.5,17.5c-0.1,0.1-0.1,0.3-0.2,0.4c0,0,0,0,0,0c-0.1,0.2,0.1,0.5,0.4,0.7c0.3,0.2,0.6,0.2,0.7,0
			c0.1-0.2,0.1-0.3,0.2-0.5c0.4-0.7,1.2-1.1,2.1-1.3c1.1-0.2,2.5,0,4,0.3c1.2,0.3,2.8,0.7,4.3,1.3c0.1,0,0.2,0.1,0.4,0.1
			c1.7,0.7,3.5,1.6,4.8,2.5c1.3,0.9,2.2,1.9,2.5,2.9c0.1,0.3,0.1,0.6,0,0.8c0,0.2-0.1,0.4-0.1,0.5c-0.1,0.2,0.2,0.5,0.5,0.6
			c0.3,0.1,0.6,0,0.7-0.2l0,0C81.4,159.6,83.6,153,85.7,146.4z M76.2,160.8c-1.5-1-3.4-2-5.2-2.7c-0.1,0-0.1-0.1-0.2-0.1
			c-1.7-0.7-3.4-1.2-4.7-1.5c-1.6-0.4-3.2-0.5-4.5-0.3c-0.1,0-0.3,0.1-0.4,0.1c2.4-5.1,4.9-10.3,7.3-15.4l0,0c0,0,0,0,0,0
			c0.1-0.2,0.1-0.3,0.2-0.5c0.9-1.6,3.5-1.7,6.3-1.1c1,0.2,2.1,0.5,3.1,0.9c0.3,0.1,0.7,0.3,1,0.4c1.3,0.6,2.5,1.2,3.5,1.9
			c1.4,1.1,2.3,2.3,2.1,3.6c-1.9,5.8-3.9,11.5-5.8,17.3C78.3,162.4,77.4,161.5,76.2,160.8z"/>
		<g>
			<path d="M85,145.7c-2.8-4.1-14.3-7.6-16.5-3.9c-0.2-0.1-0.5-0.3-0.7-0.4c2.4-4,14.2-0.1,17.3,4.1C85.1,145.6,85,145.6,85,145.7z"
				/>
			<path class="st9" d="M84.6,147c-2.8-4.1-14.5-7.7-16.7-3.9c-0.2-0.1-0.5-0.3-0.7-0.4c2.4-4,14.3-0.1,17.4,4.2
				C84.6,146.9,84.6,147,84.6,147z"/>
			<path class="st9" d="M84.1,148.4c-2.8-4.2-14.6-7.8-16.8-4c-0.2-0.1-0.5-0.3-0.7-0.4c2.4-4,14.5,0,17.6,4.3
				C84.2,148.2,84.1,148.3,84.1,148.4z"/>
			<path class="st9" d="M83.7,149.7c-2.9-4.2-14.8-7.9-16.9-4.1c-0.2-0.1-0.5-0.3-0.7-0.5c2.4-4,14.6,0.1,17.7,4.4
				C83.7,149.6,83.7,149.6,83.7,149.7z"/>
			<path class="st9" d="M83.2,151c-2.9-4.2-14.9-7.9-17.1-4.2c-0.2-0.2-0.5-0.3-0.7-0.5c2.4-4,14.7,0.1,17.9,4.4
				C83.2,150.9,83.2,151,83.2,151z"/>
			<path class="st9" d="M82.8,152.4c-2.9-4.2-15-8-17.2-4.2c-0.2-0.2-0.5-0.3-0.7-0.5c2.4-4,14.8,0.2,18,4.5
				C82.8,152.2,82.8,152.3,82.8,152.4z"/>
			<path class="st9" d="M82.3,153.7c-3-4.2-15.2-8.1-17.4-4.3c-0.2-0.2-0.5-0.3-0.7-0.5c2.4-4,14.9,0.2,18.2,4.6
				C82.3,153.6,82.3,153.6,82.3,153.7z"/>
			<path class="st9" d="M81.9,155c-3-4.2-15.3-8.1-17.5-4.4c-0.2-0.2-0.5-0.3-0.7-0.5c2.4-4,15,0.3,18.3,4.7
				C81.9,154.9,81.9,155,81.9,155z"/>
			<path class="st9" d="M81.4,156.4c-3.1-4.2-15.5-8.2-17.7-4.5c-0.2-0.2-0.5-0.3-0.7-0.5c2.4-4,15.1,0.4,18.5,4.7
				C81.4,156.2,81.4,156.3,81.4,156.4z"/>
			<path class="st9" d="M81,157.7c-3.1-4.2-15.6-8.3-17.8-4.5c-0.2-0.2-0.5-0.3-0.7-0.5c2.4-4,15.2,0.4,18.6,4.8
				C81,157.6,81,157.6,81,157.7z"/>
			<path class="st9" d="M80.5,159c-3.1-4.3-15.7-8.3-17.9-4.6c-0.3-0.2-0.5-0.3-0.7-0.5c2.4-4,15.3,0.5,18.8,4.9
				C80.5,158.9,80.5,159,80.5,159z"/>
			<path d="M80,160.4c-3.2-4.3-15.9-8.4-18.1-4.7c-0.3-0.2-0.5-0.3-0.8-0.5c2.4-4,15.4,0.6,18.9,5C80.1,160.2,80.1,160.3,80,160.4z"
				/>
		</g>
		<path class="st9" d="M68.7,162.4C68.7,162.5,68.7,162.5,68.7,162.4L68.7,162.4c-0.2,0-0.4-0.1-0.6-0.2c-0.2-0.1-0.4-0.2-0.6-0.3
			c0,0,0,0,0,0c2.6-6.2,5.1-12.3,7.7-18.5c0,0,0,0,0,0c0.3-0.7,0.9-1,1.6-1.1c0.8-0.1,1.7,0.1,2.6,0.5c0,0,0,0,0.1,0
			c0.3,0.1,0.4,0.4,0.3,0.6c-2.4,6.3-4.8,12.5-7.2,18.8c0,0,0,0,0,0c-0.1,0.2-0.4,0.3-0.7,0.1c-0.8-0.4-1.6-0.6-2.2-0.6
			C69.2,161.9,68.9,162,68.7,162.4z"/>
		<path class="st16" d="M85.1,146.8c-0.8,2.2-6.2,19-6.7,19.7c-2,2.4-11.1-1.4-10.3-4.2c2.5-6.2,5.1-12.4,7.6-18.6
			c-0.6,3.1,6.5,5.5,8.6,4C84.7,147.4,84.9,147.2,85.1,146.8z"/>
		<path d="M84.8,149.4c0.3-1,0.6-1.7,0.8-2.5l0,0c0.1-0.2-0.1-0.5-0.3-0.6c-0.3-0.1-0.6-0.1-0.7,0.1c-0.1,0.2-0.2,0.3-0.3,0.5
			c-0.1,0.1-0.2,0.2-0.4,0.3c-0.8,0.5-2.6,0.5-4.2-0.1c0,0,0,0,0,0c-0.6-0.2-1.2-0.5-1.7-0.8c-0.5-0.3-0.9-0.6-1.2-1
			c-0.4-0.5-0.7-1-0.6-1.6c0.1-0.2-0.1-0.5-0.4-0.6c-0.3-0.1-0.6-0.1-0.7,0.1c-2.6,6.2-5.1,12.3-7.7,18.5l0,0c0,0,0,0,0,0
			c-0.2,0.8,0.2,1.6,0.9,2.5c0.6,0.7,1.6,1.3,2.6,1.9c0.4,0.2,0.9,0.4,1.4,0.6c0.6,0.2,1.2,0.4,1.8,0.6c2,0.4,3.8,0.3,4.7-0.6
			C79.3,166.2,83,154.8,84.8,149.4z M77.8,166.1c-0.6,0.7-2.1,0.8-3.7,0.4c-0.5-0.1-1-0.3-1.4-0.4c-0.5-0.2-0.9-0.4-1.3-0.6
			c-0.8-0.4-1.6-0.9-2.1-1.5c-0.5-0.5-0.7-1-0.6-1.5c2.3-5.7,4.7-11.4,7-17.1c0.1,0.2,0.2,0.4,0.4,0.5c0.4,0.5,1,0.9,1.6,1.3
			c0.6,0.3,1.2,0.6,1.8,0.8c0.1,0,0.1,0,0.2,0.1c1.6,0.5,3.2,0.7,4.4,0.4c-0.1,0.2-0.1,0.4-0.2,0.6C82,154.3,78.2,165.6,77.8,166.1z
			"/>
		<g>
			<path d="M69.5,158.7c3,3.1,8.5,5.1,10.5,3.3c-0.1,0.3-0.2,0.7-0.3,1c-2.5,1-7.4-1.1-10.2-4.1C69.5,158.8,69.5,158.7,69.5,158.7z"
				/>
			<path class="st9" d="M70,157.5c3,3.1,8.5,5.1,10.4,3.2c-0.1,0.3-0.2,0.6-0.3,1c-2.5,1-7.4-1.1-10.2-4C70,157.6,70,157.5,70,157.5
				z"/>
			<path class="st9" d="M70.5,156.3c3,3.1,8.4,5,10.3,3.2c-0.1,0.3-0.2,0.6-0.3,1c-2.5,1-7.3-1-10.1-4
				C70.5,156.4,70.5,156.4,70.5,156.3z"/>
			<path class="st9" d="M71,155.1c3,3.1,8.3,5,10.3,3.1c-0.1,0.3-0.2,0.6-0.3,1c-2.5,1-7.3-1-10-3.9C70.9,155.2,71,155.2,71,155.1z"
				/>
			<path class="st9" d="M71.5,154c2.9,3.1,8.3,5,10.2,3.1c-0.1,0.3-0.2,0.6-0.3,1c-2.5,1-7.2-1-9.9-3.9
				C71.4,154.1,71.5,154,71.5,154z"/>
			<path class="st9" d="M72,152.8c2.9,3.1,8.2,4.9,10.1,3.1c-0.1,0.3-0.2,0.6-0.3,1c-2.4,1-7.2-1-9.9-3.9
				C71.9,152.9,71.9,152.8,72,152.8z"/>
			<path class="st9" d="M72.4,151.6c2.9,3.1,8.1,4.9,10,3c-0.1,0.3-0.2,0.6-0.3,1c-2.4,1-7.1-0.9-9.8-3.8
				C72.4,151.7,72.4,151.7,72.4,151.6z"/>
			<path class="st9" d="M72.9,150.4c2.8,3,8,4.9,9.9,3c-0.1,0.3-0.2,0.6-0.3,1c-2.4,1-7.1-0.9-9.7-3.8
				C72.9,150.5,72.9,150.5,72.9,150.4z"/>
			<path class="st9" d="M73.4,149.2c2.8,3,7.9,4.8,9.9,3c-0.1,0.3-0.2,0.6-0.3,1c-2.4,1-7-0.9-9.6-3.8
				C73.4,149.4,73.4,149.3,73.4,149.2z"/>
			<path class="st9" d="M73.9,148.1c2.8,3,7.9,4.8,9.8,3c-0.1,0.3-0.2,0.6-0.3,0.9c-2.4,1-7-0.9-9.5-3.7
				C73.9,148.2,73.9,148.1,73.9,148.1z"/>
			<path class="st9" d="M74.4,146.9c2.7,3,7.8,4.7,9.7,2.9c-0.1,0.3-0.2,0.6-0.3,0.9c-2.4,1-6.9-0.9-9.4-3.7
				C74.3,147,74.4,147,74.4,146.9z"/>
			<path d="M74.9,145.7c2.7,2.9,7.7,4.7,9.6,2.9c-0.1,0.3-0.2,0.6-0.3,0.9c-2.4,1-6.8-0.9-9.3-3.7C74.8,145.8,74.8,145.8,74.9,145.7
				z"/>
		</g>
		<path class="st16" d="M193.6,136.9c2.9,6,5.8,12,8.6,18c-0.3-0.5-0.7-1-1.3-1.3c-8.3-2.6-17.8,2.6-27.4,6.9
			c-13.2,6.1-31.6,13.9-50.9,16.4c-19.1,2.9-38.9,0.4-50.7-5.2c-5.4-2.3-14.2-8.3-12.6-13.3c2.9-6,5.8-12,8.6-18
			c-0.8,4.1,3.1,8,7.6,10.6c12.3,8.2,41.5,8.1,53.7,4.3c14.4-2.4,37.3-13.9,49.8-19.2C184.2,134.4,191.2,131.8,193.6,136.9z"/>
		<path d="M194,136.6c-1.3-2.7-3.8-3.3-6.6-3.1c-2.8,0.3-5.9,1.3-8.5,2.3c-11.9,4.9-32.7,15.7-47.3,18.6c-0.2,0.1-0.5,0.1-0.7,0.2
			c-0.6,0.1-1.3,0.3-1.9,0.4c-1,0.2-2.6,0.6-4.3,0.9c-13.5,3.3-38.2,1.9-49.1-5.1c-2.4-1.4-4.6-3.1-5.9-5.1c-1.1-1.6-1.6-3.2-1.3-5
			c0.1-0.2-0.1-0.5-0.3-0.6c-0.3-0.2-0.6-0.1-0.7,0.1c-2.9,6-5.8,12-8.7,17.9l0,0c0,0,0,0,0,0c-0.7,2.2,0.5,4.6,2.5,6.8
			c2.8,3.1,7.3,5.7,10.5,7.2c12.5,5.9,33.7,8.3,53.9,4.8c2-0.3,4-0.7,5.9-1.1c16.1-3.3,30.8-9.8,42-14.9c4.7-2.1,9.5-4.5,14-6
			c4.5-1.5,8.8-2.1,12.8-0.8c0.3,0.1,0.5,0.3,0.7,0.5c0.2,0.2,0.4,0.4,0.5,0.7c0.1,0.2,0.4,0.2,0.7,0c0.3-0.2,0.5-0.5,0.4-0.7
			C199.8,148.5,196.9,142.6,194,136.6C194,136.6,194,136.6,194,136.6z M193.1,137.2L193.1,137.2c2.5,5.3,5,10.5,7.5,15.8
			c-4.1-1.1-8.5-0.4-13,1.1c-4.7,1.5-9.5,3.9-14.3,6.1c-11.2,5.1-25.8,11.5-41.7,14.8c-2.1,0.4-4.2,0.8-6.3,1.2
			c-20,3.5-41,1-53.3-4.7c-3.1-1.4-7.4-3.9-10-6.7c-1.8-1.9-2.8-4-2.2-5.8c2.5-5.3,5.1-10.7,7.6-16c0.2,1.1,0.7,2.2,1.4,3.2
			c1.5,2.1,3.8,4,6.4,5.5c11.1,7.2,36.1,8.5,49.7,5.2c1.4-0.3,2.7-0.5,4.3-0.9c0.6-0.1,1.3-0.3,1.9-0.4c0.1,0,0.3-0.1,0.4-0.1
			c14.6-2.9,35.6-13.8,47.5-18.7c2.6-0.9,5.6-1.9,8.2-2.2C189.8,134.2,192,134.8,193.1,137.2C193.1,137.2,193.1,137.2,193.1,137.2z"
			/>
		<path d="M194.1,136.9l-0.6,1.9c0,0-1.3,4.1-7.6,6.8l-0.8,0.3l0.5,0.7c0.1,0.2,3.2,5.1,9.1,6.2c-0.2,1.4-1,4.9-3.9,11.2l-0.7,1.5
			l1.6-0.5c0.4-0.1,9.2-2.9,11-8.6l0.1-0.3L194.1,136.9z"/>
		<path class="st2" d="M194.2,139c0,0-1.4,4.4-8,7.2c0,0,3.2,5.2,9.3,5.9c0,0-0.1,3.5-4.1,12.2c0,0,8.8-2.7,10.5-8.1L194.2,139z"/>
		<g>
			<defs>
				<path id="SVGID_6_" d="M187,145.5c-1.5,0.4-1.4,0.7-1.4,0.7s2.4,3.8,4.9,4.7c2.5,0.9,4.6,1.5,4.6,1.5s-1.5,5-2.1,7.1
					c-0.7,2.1-2.2,5.4-2.2,5.4s4-1,6-2.4s4.6-3.9,4.9-4.6c0.3-0.7,0.7-1.8,0.7-1.8l-8-17.6c0,0-0.1-0.1-0.6,0.7
					C193.3,140.1,188.2,145.2,187,145.5z"/>
			</defs>
			<clipPath id="SVGID_7_">
				<use xlink:href="#SVGID_6_"  style="overflow:visible;"/>
			</clipPath>
			<g class="st17">
				<path d="M185.1,163.7c5.5,2.1,18.1-5.2,16-9.8c0.3-0.1,0.5-0.2,0.8-0.3c2.2,4.9-11,12.4-16.8,10.3
					C185.1,163.8,185.1,163.7,185.1,163.7z"/>
				<path class="st9" d="M184.6,162.3c5.5,2.1,17.9-5.2,15.9-9.7c0.3-0.1,0.5-0.2,0.8-0.3c2.2,4.9-10.9,12.3-16.6,10.2
					C184.6,162.4,184.6,162.3,184.6,162.3z"/>
				<path class="st9" d="M184.1,160.8c5.4,2.1,17.8-5.1,15.7-9.6c0.3-0.1,0.5-0.2,0.8-0.3c2.2,4.9-10.7,12.3-16.5,10.2
					C184.1,161,184.1,160.9,184.1,160.8z"/>
				<path class="st9" d="M183.6,159.4c5.4,2.2,17.6-5,15.6-9.6c0.3-0.1,0.5-0.2,0.8-0.3c2.2,4.9-10.6,12.2-16.3,10.1
					C183.6,159.6,183.6,159.5,183.6,159.4z"/>
				<path class="st9" d="M183.1,158c5.3,2.2,17.5-4.9,15.4-9.5c0.3-0.1,0.5-0.2,0.8-0.3c2.2,4.9-10.5,12.1-16.2,10
					C183.2,158.1,183.1,158.1,183.1,158z"/>
				<path class="st9" d="M182.6,156.6c5.3,2.2,17.3-4.8,15.3-9.4c0.3-0.1,0.5-0.2,0.8-0.3c2.2,4.9-10.4,12.1-16,9.9
					C182.7,156.7,182.6,156.7,182.6,156.6z"/>
				<path class="st9" d="M182.1,155.2c5.3,2.2,17.2-4.8,15.1-9.3c0.3-0.1,0.5-0.2,0.8-0.3c2.2,4.9-10.3,12-15.9,9.8
					C182.2,155.3,182.2,155.2,182.1,155.2z"/>
				<path class="st9" d="M181.7,153.7c5.2,2.2,17-4.7,15-9.3c0.3-0.1,0.5-0.2,0.8-0.3c2.2,4.9-10.2,11.9-15.7,9.7
					C181.7,153.9,181.7,153.8,181.7,153.7z"/>
				<path class="st9" d="M181.2,152.3c5.2,2.2,16.9-4.6,14.8-9.2c0.3-0.1,0.5-0.2,0.8-0.3c2.2,4.9-10,11.9-15.5,9.7
					C181.2,152.5,181.2,152.4,181.2,152.3z"/>
				<path class="st9" d="M180.7,150.9c5.1,2.2,16.7-4.5,14.7-9.1c0.3-0.1,0.5-0.2,0.8-0.3c2.2,4.9-9.9,11.8-15.4,9.6
					C180.7,151,180.7,151,180.7,150.9z"/>
				<path class="st9" d="M180.2,149.5c5.1,2.3,16.6-4.5,14.5-9c0.3-0.1,0.5-0.2,0.8-0.3c2.2,4.9-9.8,11.7-15.2,9.5
					C180.2,149.6,180.2,149.6,180.2,149.5z"/>
				<path d="M179.7,148.1c5.1,2.3,16.4-4.4,14.4-8.9c0.2-0.1,0.5-0.2,0.7-0.3c2.2,4.9-9.7,11.7-15.1,9.4
					C179.8,148.2,179.7,148.1,179.7,148.1z"/>
			</g>
		</g>
		<g>
			<path d="M74.5,162.8c-0.2,0.1-4.2,2.6-6.4,1.2c-0.2-0.1-0.3-0.2-0.5-0.4c-0.4-0.3-0.9-1.4-1-2.1c0-0.8,0.3-1.6,0.6-2.1
				c0.3-0.5,0.9-1.3,1.7-1.8c0.9-0.7,1.3-0.7,1.7-0.9c0.4-0.1,0.5-0.1,0.5-0.1s0.2-1.2,0.8-2c0.2-0.3,1-1.2,1.9-1.4
				c1-0.3,1.7-0.2,2.4,0.1c0.8,0.4,1.5,1,1.7,1.4c0.2,0.6,0.2,1.1,0,1.5c-0.1,0.4-0.4,0.8-0.8,1.1c-0.4,0.2-1.3,0.8-1.6,0.7
				c-0.6-0.2-0.7-0.9-0.7-0.9s1.1-0.5,1.5-1c0.4-0.4,0.8-0.8,0.7-1.1c-0.1-0.2-0.3-0.4-1.1-0.5c-0.8,0-1.8,0.2-2.2,0.6
				c-0.6,0.4-0.7,0.8-0.9,1.3c-0.1,0.2-0.2,0.5-0.2,0.5s0.4,0.2,0.6,0.4c0.3,0.4,0.1,0.7,0.1,0.7s-2.4-0.1-3.5,0.9
				c-0.4,0.4-1.2,1.3-1.2,2.2c-0.1,0.5,0,0.9,0.2,1.2c0.2,0.3,0.5,1,1.9,0.8l0.1,0c0.6-0.1,1.2-0.3,1.6-0.5c1.1-0.4,2.1-1.4,2.1-1.4
				C75,161.6,74.6,162.6,74.5,162.8z"/>
			<path d="M81.7,164.7c-0.3,0.5-0.9,1.2-1.5,1.7c-0.1,0.1-0.3,0.2-0.4,0.3c-0.1,0.1-0.3,0.1-0.3,0.2c-0.5,0.2-1.3,0.5-1.7,0.2
				c-0.7-0.4-0.9-2-0.9-2c-1.2,0.9-2,1.3-2.2,0.5c-0.2-0.6,0.2-0.8,0.2-0.8c0.3,0.1,1.1-0.4,1.9-0.9c0,0,0-1.1,0.1-2
				c0.1-0.2,0-0.3,0.1-0.5c-0.4,0.5-0.8,1.1-1,1.3c-0.1,0.1-0.3,0-0.5-0.1c-0.1,0-0.3-0.1-0.2-0.2c0.7-0.9,1.4-2.1,1.8-2.6l0-0.1
				c0-0.1,0.1-0.3,0.2-0.3c0.3-0.4,0.6-0.3,1-0.1c0.3,0.3,0.5,0.7,0.3,1.6c-0.1,0.9-0.2,1.7-0.2,1.7s0.8-0.6,1.1-1.1
				c0.4-0.6,0.4-0.6,0.6-0.8c0.1-0.2,0.1-0.6,0.1-0.6s0.5-0.1,0.8,0.1c0.2,0.2,0.5,0.5,0.2,1c-0.3,0.5-1,1.5-1.9,2.1
				c-0.8,0.6-1.3,1-1.3,1c0,0.4,0.1,1.4,0.8,1.6c0.1,0,0.2-0.1,0.5-0.1c0.2-0.1,0.4-0.3,0.6-0.4c0.8-0.6,1.6-1.6,1.6-1.6
				C81.7,163.9,82,164.3,81.7,164.7z"/>
			<path d="M81.7,168.2c-0.6-0.4-1.1-1.2-0.9-2.5c0.1-0.9,0.6-2,1.7-3.1c1.3-1.2,2.3-1.1,2.7-1c1,0.3,1,1.1,0.8,2.1
				c-0.1,0.4-0.5,1.3-1.3,0.6c0,0,0.1-0.2,0.3-0.5c0.1-0.4,0.2-1-0.1-1.1c-0.1-0.1-0.8,0-1.5,0.8c-1.2,1.4-1.3,2.1-1.3,2.8
				c0.1,0.5,0.4,2,2.4,1.3c0.9-0.3,2.1-2.3,2.1-2.3c0.3,0.2,0.7,0.4,0.5,0.9C85.2,169.5,83,169.1,81.7,168.2z"/>
			<path d="M92.3,167.4c-0.4,0.9-2.3,3.4-5,2.6c-1-0.2-2-1.5-1.7-2.7c0.2-0.8,0.9-2,2.2-3.1c1.4-1.2,2.4-1.2,2.9-1.1
				c1.7,0.5-0.1,3.1-0.9,3.7c-1.5,1-2.7,0.8-2.7,0.8c-0.2,0.7,0.2,1.2,0.6,1.4c1.8,0.8,3.2-0.9,3.8-1.9
				C91.8,166.6,92.4,167,92.3,167.4z M87.6,166.3c0,0,0.5,0,1-0.2c1-0.4,2-1.8,1.7-2.1c-0.2,0-0.9,0-1.6,0.7
				C87.6,165.9,87.6,166.3,87.6,166.3z"/>
			<path d="M92.3,171c0,0-0.3-0.1-0.6-0.2c-0.3-0.1-0.9-0.3-0.9-1.1c0.1-0.6,0.4-1.5,0.6-2.4c0.4-1,1.8-5.1,2.1-6.1
				c0.3-1,0.2-1.7,0.2-1.7s0.6,0,0.9,0.2c0.2,0,0.8,0.5,0.6,1.3l-1.9,5.5c-0.3,0.9-0.7,2.3-1,3.2C92.2,170.8,92.3,171,92.3,171z"/>
			<path d="M95.7,171.5c0,0-0.3,0-0.6-0.2c-0.3,0-0.9-0.3-0.9-1.1c0.1-0.6,0.3-1.5,0.5-2.4c0.3-1,1.6-5.2,1.9-6.2
				c0.2-1,0.1-1.7,0.1-1.7s0.6,0,0.9,0.1c0.2,0,0.9,0.4,0.6,1.2l-1.7,5.6c-0.2,0.9-0.6,2.3-0.9,3.2
				C95.6,171.3,95.7,171.5,95.7,171.5z"/>
			<path d="M103.1,168.6c-0.3,1-1.8,3.6-4.6,3.2c-1-0.1-2.2-1.2-2.1-2.5c0.1-0.8,0.6-2.1,1.8-3.3c1.2-1.4,2.2-1.5,2.7-1.5
				c1.8,0.3,0.3,3.1-0.5,3.8c-1.3,1.2-2.6,1.2-2.6,1.2c-0.1,0.7,0.3,1.1,0.8,1.3c1.9,0.6,3-1.3,3.5-2.4
				C102.5,167.9,103.2,168.2,103.1,168.6z M98.2,168.2c0,0,0.5-0.1,1-0.3c1-0.5,1.7-2,1.4-2.3c-0.2,0-0.9,0.1-1.5,0.9
				C98.3,167.7,98.2,168.2,98.2,168.2z"/>
			<path d="M109.2,168.7c-0.2,0.9-1.4,3.6-3.1,3.5c-1.1-0.1-1.4-1.1-1.3-1.6s0.4-1.8,0.5-2.7c0.2-0.8,0.5-1.7,0.3-2
				c0-0.1-0.2-0.2-0.5,0.1c-0.2,0.2-0.8,1.3-1.3,2.7c-0.7,2.4-0.7,3.5-0.7,3.5s-0.8,0-1.1-0.9c-0.1-0.7,0.5-3.3,0.5-3.5
				c0-0.2,0.2-1.1,0.3-1.6c0.1-0.6-0.1-1.1-0.1-1.1s0.2-0.4,0.9-0.3c0.2,0.1,0.4,0.3,0.5,0.5c0.1,0.2,0.1,0.6,0.1,0.6
				c0.1,0,0.1,0.1,0.1,0.2c0-0.1,0.4-0.7,0.7-1c0.3-0.3,0.7-0.4,1-0.3c0.3,0.1,0.6,0.4,0.8,0.9c0.3,0.4,0.2,1.1,0,1.6
				c-0.1,0.6-0.6,2.5-0.6,2.9c0,0.4,0.1,0.6,0.3,0.6c0,0,0.2,0,0.4-0.1c0.8-0.6,1.7-2.8,1.7-2.8C108.9,168,109.3,168.2,109.2,168.7z
				"/>
			<path d="M110.2,172.1c-0.7-0.2-1.4-0.9-1.6-2.1c-0.2-0.9,0-2.1,0.6-3.5c0.9-1.5,1.8-1.7,2.2-1.7c1,0,1.3,0.8,1.4,1.8
				c0,0.4-0.1,1.4-1.1,1c0,0,0.1-0.2,0.1-0.6c0-0.4-0.1-1-0.4-1.1c-0.1-0.1-0.8,0.3-1.1,1.2c-0.7,1.7-0.6,2.4-0.3,3.1
				c0.2,0.5,1,1.8,2.7,0.5c0.8-0.6,1.3-2.8,1.3-2.8c0.3,0.1,0.8,0.2,0.7,0.7C113.9,172.3,111.7,172.5,110.2,172.1z"/>
			<path d="M120,168.2c-0.1,1-1.2,3.9-4,3.9c-1,0.1-2.4-0.8-2.5-2.1c-0.1-0.8,0.3-2.1,1.2-3.6c1-1.6,2-1.9,2.5-1.9
				c1.8,0,0.8,3,0.2,3.8c-1.1,1.4-2.4,1.6-2.4,1.6c0.1,0.7,0.5,1.1,1,1.1c1.9,0.3,2.8-1.8,3.1-2.9C119.3,167.6,120,167.8,120,168.2z
				 M115.2,168.5c0,0,0.5-0.2,0.9-0.5c0.9-0.7,1.3-2.3,1-2.5c-0.2,0-0.9,0.3-1.3,1.1C115.1,168.1,115.2,168.5,115.2,168.5z"/>
			<path d="M122,161.9c-0.1-0.7,0.2-1.3,0.8-1.3c0.5,0,0.9,0.5,1,1.2c0.1,0.7-0.3,1.2-0.8,1.2C122.4,163,122,162.5,122,161.9z
				 M126.7,167.3c-0.2,1-0.4,2.7-1.3,3.4c-0.3,0.3-1.3,0.8-2,0.5c-0.5-0.3-0.7-0.8-0.8-1.5c-0.2-0.7-0.2-1.8-0.2-2.6
				c0-0.8-0.1-2.2,0-2.4c0-0.3-0.2-0.6-0.2-0.6s0.3-0.3,0.9-0.2c0.2,0,0.4,0.1,0.7,0.4c0.1,0.3,0.2,0.7,0.2,1.5c0,0.8,0,1.4-0.1,2.3
				c-0.1,0.9,0.1,1.2,0.1,1.5c0,0.2,0.1,0.3,0.2,0.3c0.2,0.1,0.5,0,0.8-0.3c0.7-0.7,1.1-2.9,1.1-2.9
				C126.4,166.8,126.8,166.9,126.7,167.3z"/>
			<path d="M132.8,166.1c0,0.9-0.7,3.8-2.3,4.1c-1.1,0.1-1.6-0.8-1.7-1.3c-0.1-0.5,0-1.8-0.1-2.7c0.1-0.8,0.1-1.7-0.1-2
				c0-0.1-0.2-0.2-0.5,0.2c-0.2,0.2-0.6,1.4-0.7,2.9c-0.2,2.5,0,3.5,0,3.5s-0.8,0.1-1.2-0.7c-0.2-0.7-0.2-3.3-0.2-3.5
				c0-0.2,0-1.1,0-1.6c0-0.6-0.3-1.1-0.3-1.1s0.1-0.4,0.8-0.4c0.2,0.1,0.4,0.2,0.6,0.4c0.1,0.2,0.2,0.6,0.2,0.6
				c0.1,0,0.1,0.1,0.1,0.2c0-0.1,0.3-0.8,0.5-1.1c0.2-0.3,0.6-0.5,0.9-0.5c0.3,0,0.7,0.3,1,0.7c0.4,0.3,0.4,1.1,0.4,1.6
				c0,0.6-0.1,2.6,0,2.9c0.1,0.4,0.2,0.6,0.4,0.5c0,0,0.2,0,0.4-0.2c0.7-0.7,1.1-3.1,1.1-3.1C132.4,165.5,132.8,165.6,132.8,166.1z"
				/>
			<path d="M143,164.5c0,0.2-1.3,4.7-3.9,5.2c-0.2,0-0.4,0.1-0.6,0.1c-0.5,0.1-1.7-0.4-2.2-0.9c-0.5-0.6-0.9-1.4-1-1.9
				c-0.1-0.5-0.3-1.5,0-2.5c0.2-1.1,0.5-1.5,0.7-1.8c0.2-0.3,0.3-0.4,0.3-0.4s-0.6-1-0.8-2c-0.1-0.4-0.1-1.5,0.4-2.4
				c0.5-0.9,1.1-1.3,1.8-1.6c0.9-0.3,1.8-0.3,2.2-0.1c0.6,0.3,0.9,0.6,1,1.1c0.2,0.3,0.2,0.9,0.2,1.3c-0.1,0.4-0.4,1.5-0.7,1.6
				c-0.6,0.2-1.2-0.2-1.2-0.2s0.5-1.1,0.4-1.7c0-0.6,0-1.1-0.2-1.2c-0.2-0.1-0.5-0.1-1.1,0.4c-0.6,0.5-1.2,1.3-1.2,2
				c-0.1,0.7,0.1,1,0.2,1.5c0.1,0.3,0.2,0.5,0.2,0.5s0.4-0.1,0.7-0.1c0.5,0.1,0.6,0.4,0.6,0.4s-1.8,1.6-2,3c0,0.6,0,1.8,0.6,2.5
				c0.3,0.4,0.6,0.7,1,0.8c0.4,0.1,1,0.4,2-0.7l0.1,0c0.3-0.4,0.7-1,0.8-1.4c0.5-1.1,0.6-2.5,0.6-2.5
				C142.6,163.3,142.9,164.3,143,164.5z"/>
			<path d="M150.5,161.4c0,1,0,2.7-0.8,3.6c-0.5,0.7-1.5,0.9-1.8,0.9c-0.2,0.1-0.8-0.2-1.1-0.8c-0.3,1-1.1,1.8-1.8,1.6
				c-1.1-0.2-2-2.1-2-4c0.1-2.2,1-3.7,2.2-3.5c0.3,0.1,0.6,0.2,0.9,0.5c-0.3-1.1-0.5-2.6-0.6-3.5c-0.3-1.2-0.5-1.3-0.5-1.3
				s0.2-0.2,0.6-0.3c0.3-0.1,0.8-0.1,1.1,0.5c0.3,0.5,0.5,1.8,0.5,2.7c0.2,0.9,0.7,5,0.9,6.1l0,0.1c0.2,0.2,0.2,0.2,0.5,0.2
				c1,0,1.1-3.4,1.1-3.4C150,160.8,150.4,160.9,150.5,161.4z M146.2,161.2c-0.1-0.5-0.4-0.8-0.8-0.9c-0.6,0-1.2,1.1-1.1,2.6
				c0,1.5,0.6,2.5,1.2,2.7c0.6,0.1,1-0.9,1-2.1C146.4,162.7,146.4,162.1,146.2,161.2z"/>
			<path d="M156.4,159.3c0.1,1,0.1,2.6-0.5,3.6c-0.6,1-1.7,0.9-1.9,0.9c-0.3-0.1-0.5-0.3-0.7-0.6c-0.1,0.3-0.2,0.5-0.5,0.9
				c-0.4,0.6-1.1,0.8-1.6,0.7c-0.6-0.1-0.8-0.6-1.1-1.2c-0.2-0.7-0.4-1.9-0.6-2.6c-0.1-0.7-0.5-2-0.6-2.3c0-0.2-0.3-0.4-0.3-0.4
				s0.2-0.5,0.9-0.5c0.2-0.1,0.4,0.1,0.6,0.3c0.3,0.3,0.4,0.6,0.6,1.4c0.2,0.8,0.3,1.4,0.4,2.3c0.1,0.9,0.2,1.2,0.4,1.4
				c0.1,0.3,0.3,0.4,0.5,0.2c0.5-0.3,0.8-0.8,1-1.2c-0.2-0.7-0.3-1.6-0.6-2.2c-0.1-0.7-0.4-2.1-0.5-2.3c-0.1-0.2-0.3-0.4-0.3-0.4
				s0.2-0.5,0.8-0.5c0.2-0.1,0.4,0.1,0.7,0.3c0.2,0.4,0.3,0.6,0.5,1.4c0.3,0.8,0.3,1.4,0.4,2.3c0.2,0.9,0.3,1.2,0.4,1.4
				c0.2,0.1,0.3,0.3,0.4,0.3c0.1,0,0.2-0.1,0.2-0.1c0.1,0,0.1,0,0.2-0.1c0.6-0.7,0.6-3.4,0.6-3.4
				C155.9,158.7,156.4,158.9,156.4,159.3z"/>
			<path d="M158.5,162.1c-0.7,0.1-1.6-0.3-2.3-1.5c-0.5-0.8-0.7-1.9-0.6-3.5c0.3-1.7,1.2-2.2,1.5-2.4c0.9-0.4,1.5,0.3,1.9,1.2
				c0.1,0.4,0.4,1.3-0.7,1.3c0,0,0-0.2-0.1-0.6c-0.1-0.4-0.4-0.9-0.8-0.9c-0.1-0.1-0.6,0.5-0.7,1.5c0,1.8,0.3,2.5,0.7,3
				c0.4,0.4,1.6,1.3,2.7-0.4c0.5-0.8,0.3-3.1,0.3-3.1c0.3,0,0.8-0.1,0.9,0.4C162,161,160,162,158.5,162.1z"/>
			<path d="M168,154.5c0.2,1,0.2,2.7-0.3,3.8c-0.7,0.9-2,1.2-2.8,0.3c-0.3,1.1-0.9,1.9-1.7,1.9c-1.2-0.1-2.3-1.8-2.6-4
				c-0.3-2.2,0.5-3.8,1.7-3.8c0.3,0,0.7,0.2,1.1,0.3c-0.1-0.2-0.1-0.4,0-0.6c0.1-0.5,1.2-0.6,1.4-0.6c0.1,1.3,1.2,5.1,1.2,5.1
				c0.1,0.2,0.2,0.6,0.6,0.6c0.9-0.2,0.6-3.6,0.6-3.6C167.4,154,167.8,154,168,154.5z M164.4,157.6c0-0.2-0.6-2.2-0.8-3
				c-0.2-0.3-0.6-0.6-0.9-0.6c-0.7,0.1-1,1.2-0.7,2.7c0.3,1.5,1,2.6,1.6,2.6C164.1,159.2,164.4,158.5,164.4,157.6z"/>
			<path d="M171.4,147.4c0.2,0.7-0.2,0.8-0.2,0.8s-0.6-0.9-3,0.3c-0.4,0.2-0.8,0.4-1.2,0.6l0.1,0.4c1.4,5.2,1.7,5.9,1.8,6.1
				c0,0.3,0.3,0.5,0.4,0.5c0.9,0,0.6-3.4,0.6-3.4c0.3,0,0.7,0,0.8,0.5c0.1,0.9,0.2,2.5-0.3,3.5c-1,1.9-2.3,0.8-2.7,0.4
				c-0.3-0.5-0.5-1.3-0.8-2.2c-0.2-0.6-1.4-5.1-1.4-5.1c-1.3,0.7-2.4,1.4-3,1.7c-0.7,0.3-1.6,0-1.7-0.8c-0.1-0.5,0.2-0.6,0.2-0.6
				s0.4,0.3,1,0.1c0.9-0.3,2-0.9,3.2-1.5c-0.4-0.8-0.9-1.7-0.9-1.7s0.5-0.3,0.7-0.4c0.2,0,0.8,0,1,0.6l0.4,0.9c1-0.6,2-1,3-1.3
				C171.1,146.2,171.3,147.1,171.4,147.4z"/>
			<path d="M167.9,148c-0.3-0.6-0.2-1.3,0.4-1.5c0.5-0.1,1,0.2,1.3,0.8c0.3,0.6,0,1.3-0.4,1.4C168.6,148.9,168,148.5,167.9,148z
				 M174,151.8c0.1,1,0.4,2.7-0.3,3.6c-0.2,0.4-1,1.1-1.8,1.1c-0.6-0.2-0.9-0.6-1.2-1.2c-0.4-0.6-0.7-1.7-0.9-2.4
				c-0.2-0.8-0.7-2-0.7-2.3c-0.1-0.3-0.3-0.5-0.3-0.5s0.1-0.4,0.8-0.5c0.2-0.1,0.4,0,0.7,0.2c0.2,0.2,0.4,0.6,0.6,1.4
				c0.2,0.8,0.4,1.3,0.6,2.2c0.2,0.9,0.4,1.1,0.5,1.4c0.1,0.2,0.2,0.2,0.3,0.2c0.2,0,0.5-0.1,0.6-0.5c0.5-0.9,0.2-3.1,0.2-3.1
				C173.5,151.3,173.9,151.4,174,151.8z"/>
			<path d="M178.8,148.4c0.2,0.9,0.3,1.6,0,2c-0.1,0.2-0.3,0.5-0.7,0.7c0.2,1.6-0.3,2.9-1.3,3.3c-1.4,0.6-3-0.6-3.8-2.6
				c-0.8-1.9-0.4-3.9,0.9-4.4c1.4-0.6,3,0.6,3.9,2.5l0,0.1c0.4-0.5,0.1-1.9,0.1-1.9C178.2,148,178.7,148,178.8,148.4z M177.1,151.3
				c-1,0-2.7-0.5-3.3-2.4c-0.8,2.1,1.3,4.8,2.4,4.1C176.8,152.7,177.2,152.1,177.1,151.3z M174.6,148.1c0.3,1.6,1.5,2,2.3,2
				C176.6,149.1,175.3,148.1,174.6,148.1z"/>
			<path d="M184.1,146.5c0.2,0.9,0.5,3.8-1,4.6c-1,0.4-1.7-0.3-2-0.8c-0.2-0.4-0.6-1.7-0.9-2.6c-0.2-0.8-0.4-1.7-0.7-1.9
				c0-0.1-0.3-0.1-0.4,0.3c-0.1,0.3-0.1,1.5,0.2,2.9c0.6,2.4,1.1,3.4,1.1,3.4s-0.7,0.4-1.4-0.3c-0.4-0.6-1.2-3.1-1.3-3.3
				c-0.1-0.2-0.3-1.1-0.5-1.6c-0.2-0.6-0.6-0.9-0.6-0.9s0-0.4,0.7-0.7c0.2,0,0.5,0.1,0.7,0.2c0.2,0.1,0.4,0.5,0.4,0.5
				c0.1,0,0.1,0,0.2,0.1c0-0.1,0-0.8,0.2-1.2c0.1-0.4,0.4-0.7,0.7-0.7c0.3-0.1,0.7,0.1,1.1,0.4c0.4,0.2,0.7,0.9,0.8,1.4
				c0.2,0.6,0.7,2.4,0.9,2.8c0.2,0.4,0.4,0.5,0.5,0.4c0,0,0.2-0.1,0.3-0.3c0.4-0.9,0.1-3.3,0.1-3.3C183.5,146,183.9,146,184.1,146.5
				z"/>
		</g>
		<path d="M193.6,136.9c-0.3-0.3-2.7,6.2-11.4,7.8c0,0,3.8,8.7,11.1,9.2l1.4-1.1l0-0.4c0,0-4.7-1.3-6.9-3.5
			c-2.2-2.2-2.2-2.7-2.2-2.7s6.3-2,8.9-6.8"/>
	</g>
	<g>
		<path d="M36.2,106l1.1,0.2l-1.1,7L35,113l0-0.2c0.1-0.7,0.1-1.1-0.2-1.3c-0.2-0.2-0.6-0.4-1.2-0.5l-5.2-0.8
			c-0.9-0.2-1.7-0.2-2.3-0.1c-0.6,0.1-1.1,0.3-1.6,0.8c-0.5,0.5-0.8,1.1-0.9,1.8c-0.1,0.8,0,1.5,0.3,2.1c0.3,0.6,0.8,1.1,1.3,1.3
			c0.6,0.3,1.4,0.5,2.4,0.7l4.4,0.7c1.3,0.2,2.1-0.3,2.3-1.6l1.1,0.2l-0.8,4.9l-1.1-0.2c0-0.3,0-0.6-0.1-0.9
			c-0.1-0.3-0.3-0.6-0.6-0.7c-0.3-0.2-0.6-0.3-1.2-0.4l-4.4-0.7c-0.9-0.2-1.7-0.3-2.3-0.6c-0.6-0.2-1.1-0.6-1.6-1.1
			c-0.5-0.5-0.8-1.2-1-2.1c-0.2-0.9-0.2-1.8-0.1-2.7c0.2-1,0.5-1.9,0.9-2.7c0.5-0.8,1-1.3,1.6-1.6c0.6-0.3,1.2-0.5,1.8-0.6
			s1.3,0,2.2,0.1l5.2,0.8c0.6,0.1,1.1,0.1,1.3-0.1C35.9,107.2,36.1,106.7,36.2,106z"/>
		<path d="M31,127.1l-6.1,0.2c-1,0-1.6,0.2-1.9,0.6c-0.3,0.4-0.4,0.8-0.4,1.4l-1.1,0l-0.1-5l1.1,0c0,0.4,0.1,0.8,0.3,1.1
			c0.2,0.3,0.5,0.5,0.7,0.6c0.3,0.1,0.7,0.1,1.3,0.1l6.8-0.2c1.4,0,2-0.7,2-2l1.1,0l0.1,4.5l-8,7.5l4.9-0.1c1.5,0,2.2-0.7,2.1-1.9
			l1.1,0l0.1,4.8l-1.1,0c0-0.3-0.1-0.6-0.3-0.9c-0.2-0.3-0.4-0.5-0.7-0.6c-0.3-0.1-0.7-0.1-1.3-0.1l-10.3,0.3l0-1.3L31,127.1z"/>
		<path d="M34.6,142l1.1-0.2l1.2,7l-1.1,0.2l0-0.2c-0.1-0.7-0.3-1.1-0.6-1.2s-0.7-0.2-1.3-0.1l-7.8,1.4c-0.6,0.1-1,0.3-1.2,0.5
			c-0.2,0.2-0.2,0.7-0.1,1.3l0,0.2l-1.1,0.2l-1.2-7l1.1-0.2c0.1,0.7,0.3,1.1,0.6,1.3c0.3,0.2,0.7,0.2,1.4,0.1l7.8-1.4
			c0.6-0.1,1-0.3,1.2-0.6C34.7,143.3,34.7,142.8,34.6,142z"/>
		<path d="M32.6,159.4l-3.5,1.1c-0.6,0.2-1,0.4-1.1,0.7c-0.2,0.3-0.1,0.7,0.1,1.4l0.1,0.3l-1,0.3l-2.2-6.9l1-0.3l0.1,0.2
			c0.2,0.6,0.5,1,0.7,1.1c0.3,0.1,0.7,0.1,1.3-0.1l7.5-2.4c0.6-0.2,1-0.4,1.1-0.7c0.2-0.3,0.1-0.7,0-1.3l-0.1-0.2l1-0.3l3.4,10.7
			l-3.3,1.2l-0.3-1.1c0.5-0.3,0.9-0.7,1.2-1c0.3-0.4,0.4-0.7,0.5-1c0-0.3-0.1-0.7-0.2-1.3l-0.7-2.1l-4.4,1.4l0.3,1
			c0.2,0.5,0.4,0.8,0.6,0.9c0.3,0.1,0.7,0.1,1.4-0.1l0.3,1.1l-4.4,1.4l-0.3-1.1c0.7-0.2,1.1-0.5,1.2-0.8c0.2-0.3,0.2-0.6,0-1.1
			L32.6,159.4z"/>
		<path d="M41.3,166.1l1-0.5l3,6.4l-1,0.5l-0.1-0.2c-0.3-0.6-0.6-0.9-0.9-1c-0.3-0.1-0.7,0-1.3,0.3l-7.1,3.4c-0.6,0.3-0.9,0.5-1,0.8
			c-0.1,0.3-0.1,0.7,0.2,1.3l0.1,0.2l-1,0.5l-3-6.4l1-0.5c0.3,0.6,0.6,1,0.9,1.1c0.3,0.1,0.7,0,1.3-0.2l7.1-3.4
			c0.6-0.3,0.9-0.6,1-0.9C41.7,167.2,41.6,166.7,41.3,166.1z"/>
		<path d="M43.9,183.3l-2.8,1.8c-0.5,0.3-0.9,0.6-1,0.8c-0.1,0.2-0.2,0.4-0.1,0.8c0.1,0.3,0.3,0.8,0.6,1.3c0.5,0.7,0.9,1.2,1.3,1.4
			c0.4,0.2,0.9,0.3,1.6,0.3c0.6,0,1.2-0.2,1.8-0.4l0.6,0.9l-3.7,2.3l-6.7-10.2l0.9-0.6l0.1,0.2c0.4,0.6,0.7,0.8,1,0.9
			c0.3,0,0.7-0.1,1.2-0.4l6.6-4.4c0.5-0.3,0.8-0.7,0.9-1c0.1-0.3,0-0.7-0.4-1.3l-0.1-0.2l0.9-0.6l6.3,9.5l-2.8,2.1l-0.6-0.9
			c0.4-0.5,0.7-0.9,0.8-1.3c0.2-0.4,0.2-0.7,0.2-1c-0.1-0.3-0.2-0.6-0.6-1.1l-1.4-2.1l-3.9,2.5l0.7,1c0.3,0.5,0.6,0.8,0.9,0.8
			c0.3,0,0.7-0.1,1.3-0.4l0.6,0.9l-3.8,2.5l-0.6-0.9c0.1,0,0.1-0.1,0.2-0.1c0.3-0.2,0.6-0.5,0.7-0.8c0.2-0.3,0.1-0.7-0.3-1.3
			L43.9,183.3z"/>
		<path d="M45.9,197.3l0.8-0.8c0.5,0.5,0.9,0.8,1.2,0.8c0.3,0,0.7-0.2,1.2-0.7l5.7-5.5c0.5-0.4,0.7-0.8,0.7-1.1s-0.2-0.7-0.7-1.3
			l0.8-0.7l1.2,1.1c1.2,1.1,2.1,2,2.7,2.7c1.1,1.1,1.9,2.1,2.4,2.9c0.5,0.8,0.9,1.7,1,2.8c0.2,1,0,2.1-0.3,3c-0.4,1-1,1.9-1.8,2.7
			c-0.9,0.8-1.8,1.4-2.8,1.6c-1,0.3-2,0.3-3,0.1c-1-0.2-1.8-0.6-2.5-1.2c-0.7-0.6-1.8-1.6-3.2-3.1L45.9,197.3z M58.4,192.6l-6.7,6.3
			c-0.4,0.4-0.7,0.7-0.8,0.9c-0.1,0.2-0.1,0.4-0.1,0.7c0.1,0.3,0.3,0.6,0.6,1c0.9,0.9,1.8,1.3,2.9,1.1c1.1-0.2,2.3-0.9,3.6-2.1
			c1.1-1,1.7-2,2.1-2.9c0.3-0.9,0.3-1.8,0.1-2.5C59.8,194.3,59.2,193.5,58.4,192.6z"/>
		<path d="M68.1,217.1l2.4-3.9l1,0.6c-0.4,1.3-0.5,2.4-0.3,3.3c0.2,0.8,0.7,1.5,1.3,1.9c0.5,0.3,0.9,0.4,1.4,0.3
			c0.5-0.1,0.8-0.4,1.1-0.7c0.2-0.3,0.3-0.6,0.2-1c0-0.4-0.2-1-0.7-1.7c-0.9-1.4-1.5-2.5-1.7-3c-0.3-0.6-0.4-1.2-0.4-1.8
			c0-0.6,0.2-1.3,0.6-1.9c0.6-1,1.5-1.6,2.6-1.8c1.1-0.2,2.1,0,3,0.6c1,0.6,1.6,1.4,1.8,2.5c0.2-0.1,0.5-0.3,0.8-0.6l1,0.6l-2.1,3.3
			l-0.9-0.6c0.3-0.8,0.4-1.7,0.2-2.4c-0.2-0.8-0.5-1.3-1.1-1.7c-0.4-0.3-0.9-0.4-1.3-0.3c-0.4,0.1-0.7,0.3-1,0.7
			c-0.2,0.3-0.3,0.6-0.2,0.9c0,0.3,0.1,0.7,0.3,1c0.2,0.3,0.6,1,1.3,2c0.6,0.9,1,1.6,1.2,2.2c0.2,0.6,0.3,1.1,0.2,1.7
			c-0.1,0.6-0.3,1.2-0.6,1.7c-0.6,1-1.5,1.6-2.7,1.8c-1.2,0.2-2.2,0-3.3-0.7c-0.6-0.4-1.1-0.8-1.5-1.4c-0.4-0.6-0.6-1.2-0.7-1.8
			c-0.3,0.2-0.6,0.4-0.9,0.7L68.1,217.1z"/>
		<path d="M95.3,225.5l-1.9,4.6l-1-0.4c0.1-0.5,0.1-1,0-1.4c-1.5,0.6-3,0.6-4.7-0.1c-1.9-0.8-3.2-2.1-3.8-3.8s-0.6-3.4,0.1-5.2
			c0.7-1.7,1.9-3,3.6-3.8c1.7-0.8,3.5-0.8,5.5,0c1.5,0.6,2.6,1.6,3.2,3.1c0.3-0.3,0.5-0.6,0.8-0.9l1,0.4l-1.8,4.6l-1-0.4
			c0.2-1.4,0.1-2.5-0.3-3.4c-0.4-0.9-1.1-1.6-2-2c-1.1-0.4-2-0.4-2.9,0.3c-0.9,0.6-1.7,1.8-2.4,3.6c-0.5,1.2-0.8,2.3-0.9,3.1
			c-0.1,0.8,0,1.5,0.4,2.2c0.4,0.6,1,1.1,1.6,1.4c0.9,0.4,1.8,0.4,2.8,0.1c1-0.3,1.9-1.1,2.7-2.2L95.3,225.5z"/>
		<path d="M105.9,227.1l-0.7,3.6c-0.1,0.6-0.1,1.1,0.1,1.3c0.2,0.3,0.6,0.5,1.3,0.6l-0.2,1.1l-6.8-1.4l0.2-1.1
			c0.7,0.1,1.2,0.1,1.4,0c0.3-0.2,0.5-0.6,0.6-1.2l1.6-7.7c0.1-0.6,0.1-1.1-0.1-1.3c-0.2-0.3-0.6-0.5-1.3-0.6l0.2-1.1l6.8,1.4
			l-0.2,1.1c-0.7-0.1-1.2-0.1-1.4,0.1c-0.3,0.2-0.5,0.6-0.6,1.2l-0.6,2.9l5.4,1.1l0.6-2.9c0.1-0.6,0.1-1-0.1-1.3
			c-0.2-0.3-0.6-0.5-1.3-0.6l0.2-1.1l6.8,1.4l-0.2,1.1c-0.7-0.1-1.2-0.1-1.5,0c-0.3,0.2-0.5,0.6-0.6,1.2l-1.6,7.7
			c-0.1,0.6-0.1,1.1,0.1,1.3c0.2,0.3,0.6,0.5,1.3,0.6l-0.2,1.1l-6.8-1.4l0.2-1.1c0.7,0.1,1.1,0.1,1.4-0.1c0.3-0.2,0.5-0.6,0.6-1.2
			l0.7-3.6L105.9,227.1z"/>
		<path d="M121.3,229.4c0-1.2,0.3-2.4,0.9-3.5c0.7-1.2,1.5-2,2.7-2.6c1.1-0.6,2.4-0.9,3.7-0.9c2.4,0,4.2,0.6,5.6,1.9
			c1.4,1.3,2.1,3,2.1,5c0,1.9-0.6,3.5-1.9,4.9s-3.1,2.1-5.4,2.1c-1.6,0-3-0.3-4.2-0.9c-1.2-0.6-2.1-1.5-2.6-2.6
			C121.6,231.6,121.3,230.5,121.3,229.4z M125.4,229.3c0,2.1,0.3,3.5,0.9,4.4s1.4,1.3,2.5,1.3c1.1,0,2-0.4,2.6-1.3
			c0.6-0.8,0.8-2.3,0.8-4.4c0-1.9-0.3-3.3-0.9-4.3c-0.6-0.9-1.4-1.4-2.6-1.4c-1.1,0-1.9,0.5-2.5,1.4
			C125.7,226,125.4,227.4,125.4,229.3z"/>
		<path d="M141.5,228.8c-0.2-1.2-0.1-2.4,0.3-3.6c0.4-1.3,1.2-2.3,2.2-3c1-0.8,2.2-1.3,3.4-1.5c2.3-0.5,4.2-0.2,5.8,0.9
			c1.6,1.1,2.6,2.6,3,4.5c0.4,1.8,0,3.5-1,5.1c-1,1.6-2.7,2.6-4.9,3.1c-1.5,0.3-3,0.3-4.3-0.2c-1.3-0.4-2.3-1.1-3.1-2.1
			C142.2,230.9,141.7,229.9,141.5,228.8z M145.5,227.9c0.4,2,1,3.4,1.7,4.2c0.7,0.8,1.6,1.1,2.7,0.9c1.1-0.2,1.9-0.8,2.3-1.7
			c0.4-0.9,0.4-2.4,0-4.5c-0.4-1.9-0.9-3.2-1.6-4c-0.7-0.8-1.7-1.1-2.8-0.9c-1.1,0.2-1.8,0.8-2.2,1.8
			C145.1,224.6,145.1,226,145.5,227.9z"/>
		<path d="M172.8,221.9l1.6,4.1l-11.3,4.5l-0.4-1l0.2-0.1c0.6-0.2,1-0.5,1.1-0.8c0.1-0.3,0-0.7-0.2-1.3l-2.9-7.3
			c-0.2-0.6-0.5-0.9-0.8-1.1c-0.3-0.1-0.7-0.1-1.3,0.1l-0.2,0.1l-0.4-1l6.7-2.7l0.4,1l-0.2,0.1c-0.6,0.2-1,0.5-1.1,0.8
			c-0.1,0.3,0,0.7,0.2,1.3l2.8,7.1c0.2,0.5,0.4,0.9,0.5,1c0.1,0.1,0.3,0.2,0.7,0.3c0.3,0,0.8-0.1,1.4-0.4c1.1-0.4,1.8-1,2.1-1.8
			c0.3-0.8,0.4-1.6,0.2-2.6L172.8,221.9z"/>
		<path d="M186.8,219.3l-0.7-0.9c0.6-0.4,0.9-0.8,0.9-1.1c0.1-0.3-0.1-0.7-0.5-1.3l-4.7-6.3c-0.4-0.5-0.7-0.8-1-0.8
			c-0.3-0.1-0.8,0.1-1.3,0.6l-0.6-0.9l1.3-1c1.3-1,2.3-1.8,3-2.4c1.2-0.9,2.3-1.6,3.2-2c0.9-0.4,1.8-0.7,2.9-0.7c1,0,2,0.2,3,0.7
			c0.9,0.5,1.8,1.2,2.4,2.1c0.7,0.9,1.1,1.9,1.3,3s0.1,2-0.3,3c-0.3,0.9-0.8,1.7-1.5,2.4c-0.6,0.6-1.8,1.6-3.5,2.8L186.8,219.3z
			 M183.6,206.3l5.5,7.4c0.4,0.5,0.6,0.8,0.8,0.9c0.2,0.1,0.4,0.2,0.7,0.2c0.3,0,0.6-0.2,1-0.5c1-0.7,1.5-1.7,1.4-2.7
			c0-1.1-0.6-2.4-1.7-3.8c-0.9-1.2-1.7-2-2.6-2.4c-0.9-0.4-1.7-0.5-2.5-0.4C185.5,205.1,184.6,205.6,183.6,206.3z"/>
		<path d="M194,197.9l-0.8-0.8l5-5l0.8,0.8l-0.1,0.1c-0.5,0.5-0.7,0.9-0.6,1.2c0,0.3,0.3,0.7,0.7,1.1l5.6,5.5
			c0.4,0.4,0.8,0.7,1.1,0.7c0.3,0,0.7-0.2,1.2-0.7l0.1-0.1l0.8,0.8l-5,5l-0.8-0.8c0.5-0.5,0.8-0.9,0.8-1.2c0-0.3-0.2-0.7-0.7-1.2
			l-5.6-5.5c-0.5-0.4-0.8-0.7-1.2-0.7C194.9,197.2,194.5,197.4,194,197.9z"/>
		<path d="M211.4,197l-3.6-2.8l0.7-0.9c1.3,0.6,2.4,0.8,3.2,0.6c0.9-0.2,1.5-0.6,2-1.2c0.3-0.5,0.5-0.9,0.4-1.4
			c-0.1-0.5-0.3-0.8-0.6-1.1c-0.3-0.2-0.6-0.3-1-0.3c-0.4,0-1,0.2-1.8,0.5c-1.5,0.8-2.6,1.2-3.2,1.4c-0.6,0.2-1.2,0.3-1.9,0.2
			c-0.6-0.1-1.2-0.3-1.8-0.8c-0.9-0.7-1.4-1.6-1.5-2.7c-0.1-1.1,0.2-2.1,0.8-3c0.7-0.9,1.6-1.4,2.7-1.6c-0.1-0.2-0.3-0.5-0.5-0.8
			l0.7-0.9l3.1,2.4l-0.7,0.9c-0.8-0.4-1.6-0.5-2.4-0.4c-0.8,0.1-1.4,0.4-1.8,1c-0.3,0.4-0.4,0.8-0.4,1.2c0,0.4,0.2,0.8,0.6,1
			c0.3,0.2,0.6,0.3,0.9,0.3c0.3,0,0.7-0.1,1-0.2s1.1-0.5,2.1-1.1c1-0.5,1.7-0.8,2.3-1c0.6-0.2,1.2-0.2,1.8-0.1
			c0.6,0.1,1.2,0.4,1.7,0.7c0.9,0.7,1.5,1.7,1.6,2.8c0.1,1.2-0.2,2.2-0.9,3.2c-0.4,0.6-0.9,1-1.6,1.4c-0.6,0.4-1.3,0.5-1.9,0.6
			c0.1,0.3,0.4,0.6,0.7,0.9L211.4,197z"/>
		<path d="M212,174.9l-0.5,1c-0.3,0.6-0.5,1.1-0.5,1.4c0,0.3,0.1,0.7,0.4,1.1c0.3,0.4,0.7,0.7,1.2,1.1l-0.5,1l-3.4-1.8l6.3-11.8
			l3.4,1.8l-0.5,1c-1-0.3-1.8-0.4-2.2-0.2s-0.9,0.6-1.3,1.4l-0.5,1l8.3,4.4c0.5,0.3,1,0.4,1.3,0.3c0.3-0.1,0.6-0.4,0.9-1l0.2-0.3
			l1,0.5l-3.5,6.5l-1-0.5l0.1-0.3c0.3-0.6,0.4-1,0.3-1.3c-0.1-0.3-0.4-0.6-1-0.9L212,174.9z"/>
		<path d="M224.9,161.1l3,1c0.6,0.2,1,0.2,1.3,0.1c0.3-0.1,0.5-0.5,0.7-1.1l0.1-0.2l1,0.3l-2.2,6.9l-1-0.3l0.1-0.3
			c0.2-0.6,0.2-1.1,0-1.4c-0.2-0.3-0.5-0.5-1.1-0.7l-7.5-2.4c-0.6-0.2-1-0.2-1.3-0.1c-0.3,0.1-0.5,0.5-0.7,1.1l-0.1,0.3l-1-0.3
			l1.6-5.1l0.4-1.1c0.4-1.1,0.7-2,0.9-2.4c0.2-0.5,0.6-1,1-1.4c0.4-0.4,1-0.7,1.5-0.8c0.6-0.1,1.2-0.1,1.7,0.1
			c1.5,0.5,2.3,1.7,2.3,3.6c0.4-0.4,1.6-0.8,3.4-1.3c1.4-0.4,2.3-0.7,2.6-0.9c0.3-0.2,0.6-0.6,0.7-0.9l1,0.3l-1.3,4
			c-0.5,0.2-1.9,0.6-3.9,1c-1,0.2-1.7,0.4-2,0.5c-0.3,0.1-0.6,0.3-0.7,0.5C225.3,159.9,225.1,160.4,224.9,161.1z M223.8,160.7
			c0.3-1.1,0.5-1.8,0.5-2.2c0-0.4-0.2-0.8-0.5-1.1c-0.3-0.3-0.8-0.6-1.4-0.8c-0.9-0.3-1.6-0.3-2.1,0c-0.5,0.3-0.9,1-1.2,2
			c0,0.1-0.1,0.3-0.2,0.5L223.8,160.7z"/>
		<path d="M222,147.2l-1.1-0.2l1.1-7l1.1,0.2l0,0.2c-0.1,0.7,0,1.1,0.2,1.3c0.2,0.2,0.6,0.4,1.2,0.5l7.8,1.2c0.6,0.1,1,0.1,1.3-0.1
			c0.3-0.2,0.5-0.6,0.6-1.2l0-0.2l1.1,0.2l-1.1,7l-1.1-0.2c0.1-0.7,0.1-1.2-0.1-1.4c-0.2-0.3-0.6-0.4-1.2-0.6l-7.8-1.2
			c-0.6-0.1-1.1-0.1-1.3,0.1C222.3,146.1,222.2,146.5,222,147.2z"/>
		<path d="M231,123.4l5,0.1l0,1.1c-0.5,0.1-1,0.3-1.3,0.5c1.1,1.1,1.6,2.6,1.6,4.4c0,2.1-0.7,3.7-2.1,4.9c-1.4,1.2-3,1.8-4.8,1.8
			c-1.8,0-3.5-0.7-4.9-1.9c-1.4-1.3-2.1-3-2.1-5.1c0-1.6,0.6-3,1.7-4.1c-0.3-0.2-0.7-0.3-1.2-0.4l0-1.1l4.9-0.1l0,1.1
			c-1.3,0.3-2.4,0.8-3.1,1.5c-0.7,0.7-1.1,1.6-1.1,2.6c0,1.2,0.4,2,1.3,2.6c0.9,0.6,2.3,0.9,4.2,0.9c1.4,0,2.4-0.1,3.2-0.3
			c0.8-0.2,1.4-0.6,1.8-1.2c0.4-0.6,0.7-1.3,0.7-2c0-1-0.3-1.8-1-2.6c-0.7-0.8-1.7-1.3-3.1-1.7L231,123.4z"/>
		<path d="M222.8,114.4l0.2,1.1c0.1,0.7,0.3,1.1,0.5,1.4c0.2,0.3,0.5,0.5,1,0.6c0.5,0.1,1,0.2,1.6,0.1l0.2,1.1l-3.8,0.6l-2.3-13.2
			l3.8-0.6l0.2,1.1c-1,0.4-1.6,0.8-1.9,1.2c-0.3,0.4-0.4,1.1-0.2,1.9l0.2,1.1l9.3-1.6c0.6-0.1,1-0.3,1.2-0.5
			c0.2-0.2,0.2-0.7,0.1-1.3l-0.1-0.3l1.1-0.2l1.2,7.3l-1.1,0.2l-0.1-0.3c-0.1-0.7-0.3-1.1-0.6-1.2c-0.3-0.2-0.7-0.2-1.3-0.1
			L222.8,114.4z"/>
	</g>
</g>
</svg>
