<?xml version="1.0" encoding="utf-8"?>
<!-- Generator: Adobe Illustrator 19.2.1, SVG Export Plug-In . SVG Version: 6.00 Build 0)  -->
<svg version="1.1" id="Layer_1" xmlns="http://www.w3.org/2000/svg" xmlns:xlink="http://www.w3.org/1999/xlink" x="0px" y="0px"
	 viewBox="0 0 151.3 138.9" enable-background="new 0 0 151.3 138.9" xml:space="preserve">
<path d="M75.8,114.5"/>
<path fill="#FFFFFF" d="M123.5,65.1c0-0.1,0-0.1,0-0.2c0-0.1,0-0.2,0-0.2l0.2,0l-0.2-5.1c-0.2-4.6-0.9-9.1-2.2-13.9
	c-0.8-3.2-1.8-6.3-3-9.3c3.5,2.3,6.5,5.1,9.1,8.4l7.1,9.1V10.6l-6.6,5.7c-1,0.9-1.3,1.1-2.8,1.1c-0.9,0-3-0.6-5.5-1.2
	c-4.3-1.2-10.6-2.9-19.4-4c-6.7-5.4-18.9-9.5-18.9-9.5c-33.4-9.5-63.6,9.3-64.9,10.1l-6.2,3.9l6.7,3.1c2.4,1.1,5,2.9,7.6,5.4
	C8.9,34.9,0,48.7,0,63.4c0,19.7,13.7,36.5,36.7,45.3l4.9,23.9l9.8,2.4l-0.6,3.8c9.9-5.1,27.7-14.8,37.4-23.1
	c18.8-0.6,35.3-3.8,48.9-9.3l2.5-1V75.5c0-0.9,0.1-1.2,0.1-1.2c0.1-0.1,3.4-0.6,6.8-1.3l4.8-7.9H123.5z"/>
<path fill="#010101" d="M130.8,42.4c-9-11.4-23.2-18.1-47-18.1c-28.8,0-56.7,14.9-56.7,39.2c0,24.3,23.4,39.5,56.7,39.2
	c13.5-0.1,22.7-2.3,30.4-4.2V75.6c0-3.7-2.7-5.3-9-6.4h38c-6.1,1.2-7.4,2.7-7.4,6.4v27.3c-15.5,6.3-34.4,9.1-54.4,9.1
	C29.4,112,4.2,89,4.2,63.5C4.2,38,34.3,15,81.3,15c27.2,0,39.1,6.4,44.1,6.4c2.9,0,4-0.9,5.4-2.1V42.4z"/>
<g>
	<rect x="88.6" y="13.1" fill="#FFFFFF" width="6.6" height="8.4"/>
	<rect x="53.7" y="18.9" fill="#FFFFFF" width="31.2" height="11.4"/>
	<polygon fill="#FFFFFF" points="61.5,100.2 59,127.7 67.1,125.3 93.2,104.3 90.6,93.6 	"/>
	<path fill="#010101" d="M76.8,82.4l0.1-0.4l-22.6,4.4l-8.1,0.5l-7.6-3.6c0.1,0.4,5.7,36.5,6.9,43.6c0.1,0.8,0.2,1.2,0.2,1.2
		l0.6,1.9c0,0,4.8-7.7,13.5-13.4l2-20.3l4.6-0.4l5.6-2.9l3.9-4.5l0.2-3.4l1.2-0.6l2-0.4l0.8-0.5l0.1-1.7L76.8,82.4z"/>
	<path fill="#010101" d="M18.8,16.2c0,0,30.7-19.4,63.5-9.1l-28,10l-2.5,11.1l-0.1,10.9L49.9,40l-8.7,0.5l-6.9-11.8l-4.9-5.5
		l-5.1-4.2l-3.9-2.6L18.8,16.2z"/>
	<polygon fill="#231F20" points="105.3,88 92.4,89.7 93.7,84.3 97.5,83.7 101.4,86.1 	"/>
	<g>
		<path fill="#E01F26" d="M43.2,40.4c-1.4-3.9-3.1-8.2-3.1-8.3c0,0,2.8,5.5,4.2,8.2l5.6-0.4c-4.2-15-3.2-26-2.8-29l-1.4-0.4
			c-1.8,8.2,1.2,26.2,1.2,26.2c-4-11.5-4.7-24.9-4.5-26.3c-0.3,0-1.3,0-1.9,0l0.8,7.9l-2.6-7.8c-2.4,0.2-4.7,0.5-7,0.9l1.3,6.5
			c0,0-2.9-5.2-3.2-6.1c-1.8,0.4-3.5,0.9-5.1,1.5c6.3,5.6,7.6,10.7,7.6,10.7c-3.2-4.6-6.9-7.9-10.3-9.4c-1.3,0.6-2.7,1.2-3.2,1.4
			c10.7,4.9,19.6,19.4,22.5,24.3L43.2,40.4z"/>
		<path fill="#E01F26" d="M119.5,63.1c-0.3-1.5-2.5-2.5-4.1-3.2c2-0.1,3.6-0.2,4.3-0.1c-0.2-4-0.8-8.2-2-13.1
			c-2.1-8.2-5.4-15.5-9.8-21.4l-1.2-1.5c-3.2-4-6.7-7.3-10.9-10.2c-1.4,1.3-3.8,5.5-3.8,5.5c0-1.8,1.3-4.9,2.2-6.6
			c-7.8-5-15.4-6.8-20.6-7.3c-6.1-0.6-13.9,0.8-19.7,2.8c-6,11-3.2,26.1-2.1,31.1c0.8-0.5,2-1.2,3.6-1.9c-0.9-4.2-1.6-10.8,0.9-17
			c0,0-1.5,8.9,1.4,16.1c0.8-0.3,1.7-0.6,2.7-0.9c-0.3-1-1.5-4.9-0.1-9.9c0.2,5.6,1.3,8.3,2,9.3c2-0.5,4.3-1,6.9-1.5
			c2.4-0.4,4.7-0.6,7-0.6c1.3-9.9,5.1-13.3,5.1-13.3s-2.6,6.8-2.8,13.3c5.1,0.3,9.7,1.5,13.9,3.6l1.6,0.9c0.8,0.5,1.7,1,2.4,1.6
			c7,5.2,11.2,13.2,12.5,23.9l0.1,0.8c3.5,0.4,7.1,1.6,10.7,3.3C119.8,65.5,119.8,64.7,119.5,63.1z"/>
	</g>
	<path fill="#A61E22" d="M31.1,13.1"/>
	<path fill="#939598" d="M105.8,73.4c1.3,1,2.2,3.1,2.3,4.5c0.3,2.5-0.7,5.9-3.2,6.9c-1.6,0.6-3.5-0.4-4.9-1.4
		c-1.1-0.7-2.3-1.1-3.3-1.1c-4.1,0.1-5.4,2.9-5.3,9.9c0,1.7,0.1,3.4,0.1,5c0.1,3.1,0.4,6.9,0.4,6.9c-14.4,14-31.3,22-31.3,22
		c2.1-14.8,2.3-29.2,2.3-29.2c4.3,0.2,7.9-1,10.4-3.3c3.4-3.2,4.5-7.8,4.8-9.2l-1.7,0.4c-1.7,4.4-4.2,7.4-7.4,8.9
		c-3.6,1.7-7.1,1.3-8.2,1c0,2.7,0.1,17.3-3.7,36l3.4-1.8c9.4-4.8,20.1-10.2,31.8-21.9c0.2-0.2,2-2.1,2-2.1l-0.2-5.2
		c0,0-0.2-4.3-0.2-4.3c0,0-0.1-4-0.1-4c0.1-2.8,0.4-4.7,1.5-5.5c0.7-0.6,1.6-0.6,2.7-0.2c0.9,0.3,1.8,0.8,2.6,1.3
		c2.1,1.2,3.9,2.2,6.4,0.7c2.7-1.7,3.5-5.9,3.1-9C110.1,78.4,109.6,74.5,105.8,73.4z"/>
	<path fill="#939598" d="M53.5,91L48,92.3l0,15.2l6.3-2.7C53.7,102.1,51.8,95.9,53.5,91z"/>
	<path fill="#939598" d="M40,85.2l-1.5-1.6c0,0-0.2,8.6,0.3,13.6c0.5,5,6.3,32.2,6.3,32.2l1.2,0.5c-2.1-14-2.4-26.2-1.6-35.6
		c0,0-1.9,0.3-3.2-1C40.1,92,39.7,89.1,40,85.2z"/>
	<path fill="#939598" d="M37.7,85.1"/>
	<g>
		<path fill="#939598" d="M80.4,35.6c-17.6-1.4-28.8,6.9-28.9,7l-10,0.6l1.7,5.4l5.3-0.2c0.7,1.3,0.8,4.1,0.9,5.9
			c1.6-0.1,2.8,0,3.4,0.1c0,0,9.8-6.7,19.5-8.2c7.8-1.2,14.9-0.4,21.1,3.2c0,0,3.1-3.1,6.5,1.5l2.8-0.7C96.6,39.2,85.3,36,80.4,35.6
			z"/>
		<path fill="#939598" d="M93.8,51.8L93.8,51.8C93.8,51.8,93.8,51.8,93.8,51.8z"/>
	</g>
	<path fill="#A61E22" d="M43.2,40.4c-1.4-3.9-3.1-8.2-3.1-8.3c0,0,2.8,5.5,4.2,8.2l5.6-0.4c-4.2-15-3.2-26-2.8-29l-1.4-0.4
		c-1.8,8.2,1.2,26.2,1.2,26.2c-4-11.5-4.7-24.9-4.5-26.3c-0.3,0-1.3,0-1.9,0l0.8,7.9l-2.6-7.8c-2.4,0.2-4.7,0.5-7,0.9l1.3,6.5
		c0,0-2.9-5.2-3.2-6.1c-1.8,0.4-3.5,0.9-5.1,1.5c6.3,5.6,7.6,10.7,7.6,10.7c-3.2-4.6-6.9-7.9-10.3-9.4c-1.3,0.6-2.7,1.2-3.2,1.4
		c10.7,4.9,19.6,19.4,22.5,24.3L43.2,40.4z"/>
	<path fill="#E01F26" d="M115.4,59.9c2-0.1,3.6-0.2,4.3-0.1c-0.2-4-0.8-8.2-2-13.1c-2.1-8.2-5.4-15.5-9.8-21.4l-1.2-1.5
		c-3.2-4-6.7-7.3-10.9-10.2c-1.4,1.3-3.8,5.5-3.8,5.5c0-1.8,1.3-4.9,2.2-6.6c-7.8-5-15.4-6.8-20.6-7.3c-6.1-0.6-13.9,0.8-19.7,2.8
		c-6,11-3.2,26.1-2.1,31.1c0.8-0.5,2-1.2,3.6-1.9c-0.9-4.2-1.6-10.8,0.9-17c0,0-1.5,8.9,1.4,16.1c0.8-0.3,1.7-0.6,2.7-0.9
		c-0.3-1-1.5-4.9-0.1-9.9c0.2,5.6,1.3,8.3,2,9.3c2-0.5,4.3-1,6.9-1.5c2.4-0.4,4.7-0.6,7-0.6c1.3-9.9,5.1-13.3,5.1-13.3
		s-2.6,6.8-2.8,13.3c5.1,0.3,9.7,1.5,13.9,3.6l1.6,0.9c0.8,0.5,1.7,1,2.4,1.6c7,5.2,11.2,13.2,12.5,23.9l0.1,0.8
		c3.5,0.4,7.1,1.6,10.7,3.3c0.2-1.5,0.2-2.3-0.1-3.9C119.2,61.7,117,60.6,115.4,59.9z"/>
	<polygon fill="#010101" points="75.6,85.6 79.3,84.7 79.7,82.4 74.8,84.3 	"/>
	<path fill="#010101" d="M39.9,85.5l-1.5-1.1v1.3c0,0,1.7,2.3,1.7,2.2s0.5-1.9,0.5-1.9L39.9,85.5z"/>
	<path fill="#939598" d="M101.3,57.4l-0.3,0.5c-9,16.4-23.3,17.7-23.3,17.7c-16.1-10-28.2-15.1-28.2-15.1c-7.9,4.4-11.7,14-11.7,14
		s0.3-13.2,9.5-19.3l0.2,1.9c2-0.7,5.4,0.1,5.4,0.1c7.3-4.7,14.4-7.8,21.1-9C73.8,48.2,88.7,45.4,101.3,57.4z"/>
	<path fill="#939598" d="M104.7,74.6c-0.2-0.3-0.3-0.5-0.5-0.8c-1-2.7,0.1-3.8,0.1-7.1c0-3.3-1.5-6.9-1.5-6.9
		c-0.1,0.4-0.3,1.1-0.6,1.5c-8,14.5-23.3,17.5-23.3,17.5l-1.7,0.4C61.1,69.1,49.2,64,49.2,64c-5.4,3.8-8.4,9.7-10,12.7l8.4,6
		l19.1-5.4l2.8,1.7l-22.3,6.5l-9.6-6.8l-3.3,2.7l12.2,9l33.1-7.9L79.4,84c-0.1,1.1-1.2,8.8-5.3,12c-2.3,1.8-5.1,3.4-8.6,3.6
		c0,7.5-1.2,18.4-1.4,21.4c2.9-1.6,17.4-10.3,25-18c0-1.4,0-12.8,0-12.8c0-1.4-0.6-9.8,6.5-10.1c0,0,3.3-0.5,6.2,2
		c1.4,1.1,2.9,0.3,3.7-1.2C105.6,80.8,107.1,77.9,104.7,74.6z"/>
</g>
</svg>
